%FSLAX34Y34*%
%MOMM*%
%LNCOPPER_TOP*%
G71*
G01*
%ADD10R, 1.900X1.500*%
%ADD11R, 2.100X4.200*%
%ADD12R, 3.500X2.000*%
%ADD13R, 1.500X1.200*%
%ADD14R, 2.800X2.400*%
%ADD15C, 0.600*%
%ADD16R, 1.500X1.800*%
%ADD17R, 1.600X2.200*%
%ADD18C, 0.200*%
%LPD*%
X150775Y104250D02*
G54D10*
D03*
X150675Y81250D02*
G54D10*
D03*
X150675Y58250D02*
G54D10*
D03*
X209375Y81150D02*
G54D11*
D03*
X87275Y97900D02*
G54D12*
D03*
X87275Y31225D02*
G54D12*
D03*
X239675Y56625D02*
G54D13*
D03*
X239675Y77225D02*
G54D13*
D03*
X271425Y91550D02*
G54D14*
D03*
X271425Y40750D02*
G54D14*
D03*
X39650Y91550D02*
G54D14*
D03*
X39650Y40750D02*
G54D14*
D03*
G54D15*
X239675Y77225D02*
X253925Y77225D01*
X261900Y85200D01*
G54D15*
X239675Y56625D02*
X252375Y56625D01*
X261900Y47100D01*
G54D15*
X39650Y91550D02*
X58700Y91550D01*
X65050Y97900D01*
X93625Y97900D01*
G54D15*
X39650Y40750D02*
X55525Y40750D01*
X65050Y31225D01*
X93625Y31225D01*
X214275Y31225D02*
G54D16*
D03*
X184907Y31225D02*
G54D16*
D03*
X125375Y31225D02*
G54D17*
D03*
X163475Y31225D02*
G54D17*
D03*
G54D15*
X239675Y77225D02*
X239675Y104250D01*
X230150Y113775D01*
X160300Y113775D01*
X150775Y104250D01*
G54D15*
X209375Y81150D02*
X209375Y55175D01*
X214275Y50275D01*
X214275Y31225D01*
G54D15*
X209375Y81150D02*
X150775Y81150D01*
X150675Y81250D01*
X113450Y81250D01*
X99975Y94725D01*
G54D15*
X125375Y31225D02*
X125375Y34400D01*
X144425Y53450D01*
G54D15*
X125375Y31225D02*
X87275Y31225D01*
G54D15*
X239675Y56625D02*
X239675Y21700D01*
X230150Y12175D01*
X144425Y12175D01*
X125375Y31225D01*
G54D15*
X184907Y31225D02*
X163475Y31225D01*
G54D18*
X300000Y120125D02*
X300000Y5825D01*
X11075Y5825D01*
X11075Y120125D01*
X300000Y120125D01*
M02*
