%FSLAX34Y34*%
%MOMM*%
%LNSILK_BOTTOM*%
G71*
G01*
%ADD10C, 0.150*%
%ADD11C, 0.300*%
%ADD12C, 0.191*%
%ADD13C, 0.200*%
%ADD14C, 0.159*%
%ADD15C, 4.000*%
%ADD16C, 0.238*%
%LPD*%
G54D10*
X529775Y202150D02*
X461775Y202150D01*
X461775Y274150D01*
X533775Y274150D01*
X533775Y206150D01*
G54D10*
X529775Y202150D02*
X533775Y206150D01*
G54D11*
X528188Y208562D02*
X528188Y208562D01*
X528188Y208562D01*
G54D12*
X559528Y278309D02*
X559528Y288976D01*
X556862Y288976D01*
X555795Y288309D01*
X555262Y286976D01*
X555262Y280309D01*
X555795Y278976D01*
X556862Y278309D01*
X559528Y278309D01*
G54D12*
X551528Y278309D02*
X551528Y288976D01*
X548862Y288976D01*
X547795Y288309D01*
X547262Y286976D01*
X547262Y280309D01*
X547795Y278976D01*
X548862Y278309D01*
X551528Y278309D01*
G54D12*
X543528Y286976D02*
X542995Y288309D01*
X541928Y288976D01*
X540862Y288976D01*
X539795Y288309D01*
X539262Y286976D01*
X539262Y285642D01*
X539795Y284309D01*
X540862Y283642D01*
X539795Y282976D01*
X539262Y281642D01*
X539262Y280309D01*
X539795Y278976D01*
X540862Y278309D01*
X541928Y278309D01*
X542995Y278976D01*
X543528Y280309D01*
G54D12*
X526841Y249762D02*
X526841Y260429D01*
X524174Y253762D01*
X521508Y260429D01*
X521508Y249762D01*
G54D12*
X514575Y250429D02*
X515428Y249762D01*
X516495Y249762D01*
X517562Y250429D01*
X517775Y251762D01*
X517775Y254029D01*
X517242Y255362D01*
X516175Y255762D01*
X515108Y255362D01*
X514575Y254429D01*
X514575Y253096D01*
X517775Y253096D01*
G54D12*
X510842Y247762D02*
X509775Y247096D01*
X509029Y247096D01*
X507962Y247762D01*
X507642Y249096D01*
X507642Y255762D01*
G54D12*
X507642Y254029D02*
X508175Y255362D01*
X509242Y255762D01*
X510309Y255362D01*
X510842Y254029D01*
X510842Y251362D01*
X510309Y250029D01*
X509242Y249762D01*
X508175Y250029D01*
X507642Y251362D01*
G54D12*
X503909Y255096D02*
X502842Y255762D01*
X501562Y255762D01*
X500709Y254429D01*
X500709Y249762D01*
G54D12*
X500709Y251762D02*
X501242Y253096D01*
X502309Y253362D01*
X503376Y253096D01*
X503909Y251762D01*
X503696Y250429D01*
X502842Y249762D01*
X502309Y249762D01*
X502096Y249762D01*
X501242Y250429D01*
X500709Y251762D01*
G54D12*
X496976Y258429D02*
X496443Y259762D01*
X495376Y260429D01*
X494309Y260429D01*
X493243Y259762D01*
X492709Y258429D01*
X492709Y257096D01*
X493243Y255762D01*
X494309Y255096D01*
X493243Y254429D01*
X492709Y253096D01*
X492709Y251762D01*
X493243Y250429D01*
X494309Y249762D01*
X495376Y249762D01*
X496443Y250429D01*
X496976Y251762D01*
G54D12*
X484709Y249762D02*
X488976Y249762D01*
X488976Y250429D01*
X488443Y251762D01*
X485243Y255762D01*
X484709Y257096D01*
X484709Y258429D01*
X485243Y259762D01*
X486309Y260429D01*
X487376Y260429D01*
X488443Y259762D01*
X488976Y258429D01*
G54D12*
X478309Y255096D02*
X479376Y255096D01*
X480443Y255762D01*
X480976Y257096D01*
X480976Y258429D01*
X480443Y259762D01*
X479376Y260429D01*
X478309Y260429D01*
X477243Y259762D01*
X476709Y258429D01*
X476709Y257096D01*
X477243Y255762D01*
X478309Y255096D01*
X477243Y254429D01*
X476709Y253096D01*
X476709Y251762D01*
X477243Y250429D01*
X478309Y249762D01*
X479376Y249762D01*
X480443Y250429D01*
X480976Y251762D01*
X480976Y253096D01*
X480443Y254429D01*
X479376Y255096D01*
G54D12*
X472976Y249762D02*
X472976Y260429D01*
X470309Y260429D01*
X469243Y259762D01*
X468709Y258429D01*
X468709Y257096D01*
X469243Y255762D01*
X470309Y255096D01*
X472976Y255096D01*
G54D10*
X531925Y479250D02*
X471925Y479250D01*
X471925Y582150D01*
X531925Y582150D01*
X531925Y479250D01*
G54D10*
X526925Y479250D02*
X476925Y479250D01*
X476925Y484250D01*
X526925Y484250D01*
X526925Y479250D01*
G54D12*
X499304Y585762D02*
X499304Y596429D01*
X496638Y596429D01*
X495571Y595762D01*
X495038Y594429D01*
X495038Y587762D01*
X495571Y586429D01*
X496638Y585762D01*
X499304Y585762D01*
G54D12*
X491304Y585762D02*
X491304Y596429D01*
X488638Y596429D01*
X487571Y595762D01*
X487038Y594429D01*
X487038Y587762D01*
X487571Y586429D01*
X488638Y585762D01*
X491304Y585762D01*
G54D12*
X479038Y585762D02*
X483304Y585762D01*
X483304Y586429D01*
X482771Y587762D01*
X479571Y591762D01*
X479038Y593096D01*
X479038Y594429D01*
X479571Y595762D01*
X480638Y596429D01*
X481704Y596429D01*
X482771Y595762D01*
X483304Y594429D01*
G54D12*
X496000Y506350D02*
X506667Y506350D01*
X506667Y509017D01*
X506000Y510083D01*
X504667Y510617D01*
X503333Y510617D01*
X502000Y510083D01*
X501333Y509017D01*
X501333Y506350D01*
G54D12*
X498000Y518617D02*
X496667Y518083D01*
X496000Y517017D01*
X496000Y515950D01*
X496667Y514883D01*
X498000Y514350D01*
X504667Y514350D01*
X506000Y514883D01*
X506667Y515950D01*
X506667Y517017D01*
X506000Y518083D01*
X504667Y518617D01*
G54D12*
X496000Y522350D02*
X506667Y522350D01*
X506667Y526083D01*
G54D12*
X501333Y522350D02*
X501333Y526083D01*
G54D12*
X501333Y532483D02*
X501333Y531416D01*
X502000Y530349D01*
X503333Y529816D01*
X504667Y529816D01*
X506000Y530349D01*
X506667Y531416D01*
X506667Y532483D01*
X506000Y533549D01*
X504667Y534083D01*
X503333Y534083D01*
X502000Y533549D01*
X501333Y532483D01*
X500667Y533549D01*
X499333Y534083D01*
X498000Y534083D01*
X496667Y533549D01*
X496000Y532483D01*
X496000Y531416D01*
X496667Y530349D01*
X498000Y529816D01*
X499333Y529816D01*
X500667Y530349D01*
X501333Y531416D01*
G54D12*
X506667Y542083D02*
X506667Y537816D01*
X502000Y537816D01*
X502000Y538349D01*
X502667Y539416D01*
X502667Y540483D01*
X502000Y541549D01*
X500667Y542083D01*
X498000Y542083D01*
X496667Y541549D01*
X496000Y540483D01*
X496000Y539416D01*
X496667Y538349D01*
X498000Y537816D01*
G54D12*
X506667Y545816D02*
X506667Y550083D01*
X505333Y549549D01*
X503333Y548483D01*
X500667Y547416D01*
X498667Y546883D01*
X496000Y546883D01*
G54D12*
X496000Y557016D02*
X506667Y557016D01*
X500000Y553816D01*
X498667Y553816D01*
X498667Y558083D01*
G54D12*
X496000Y563949D02*
X506667Y563949D01*
G54D12*
X506667Y561816D02*
X506667Y566083D01*
G54D10*
X789375Y139525D02*
X769375Y139525D01*
X769375Y190625D01*
X789375Y190625D01*
X789375Y139525D01*
G54D10*
X784375Y139525D02*
X774375Y139525D01*
X774375Y144525D01*
X784375Y144525D01*
X784375Y139525D01*
G54D12*
X822534Y196295D02*
X822534Y206962D01*
X819868Y206962D01*
X818801Y206295D01*
X818268Y204962D01*
X818268Y198295D01*
X818801Y196962D01*
X819868Y196295D01*
X822534Y196295D01*
G54D12*
X814534Y196295D02*
X814534Y206962D01*
X811868Y206962D01*
X810801Y206295D01*
X810268Y204962D01*
X810268Y198295D01*
X810801Y196962D01*
X811868Y196295D01*
X814534Y196295D01*
G54D12*
X806534Y202962D02*
X803868Y206962D01*
X803868Y196295D01*
G54D12*
X784342Y149750D02*
X773675Y155083D01*
G54D12*
X773675Y149750D02*
X784342Y155083D01*
G54D12*
X780342Y158816D02*
X784342Y161483D01*
X773675Y161483D01*
G54D12*
X773675Y169483D02*
X773675Y165216D01*
X774342Y165216D01*
X775675Y165749D01*
X779675Y168949D01*
X781008Y169483D01*
X782342Y169483D01*
X783675Y168949D01*
X784342Y167883D01*
X784342Y166816D01*
X783675Y165749D01*
X782342Y165216D01*
G54D12*
X773675Y177483D02*
X773675Y173216D01*
X774342Y173216D01*
X775675Y173749D01*
X779675Y176949D01*
X781008Y177483D01*
X782342Y177483D01*
X783675Y176949D01*
X784342Y175883D01*
X784342Y174816D01*
X783675Y173749D01*
X782342Y173216D01*
G54D12*
X782342Y185483D02*
X783675Y184949D01*
X784342Y183883D01*
X784342Y182816D01*
X783675Y181749D01*
X782342Y181216D01*
X779008Y181216D01*
X778342Y181216D01*
X779675Y182816D01*
X779675Y183883D01*
X779008Y184949D01*
X777675Y185483D01*
X775675Y185483D01*
X774342Y184949D01*
X773675Y183883D01*
X773675Y182816D01*
X774342Y181749D01*
X775675Y181216D01*
X779008Y181216D01*
G54D11*
G75*
G01X1082825Y159225D02*
G03X1082825Y159225I-110000J0D01*
G01*
G54D11*
X868825Y196225D02*
X837825Y196225D01*
X837825Y121225D01*
X868825Y121225D01*
G54D12*
X1053617Y261698D02*
X1051483Y261698D01*
X1051483Y258365D01*
X1052017Y257032D01*
X1053083Y256365D01*
X1054150Y256365D01*
X1055217Y257032D01*
X1055750Y258365D01*
X1055750Y265032D01*
X1055217Y266365D01*
X1054150Y267032D01*
X1053083Y267032D01*
X1052017Y266365D01*
X1051483Y265032D01*
G54D12*
X1047750Y256365D02*
X1047750Y267032D01*
X1045083Y267032D01*
X1044017Y266365D01*
X1043483Y265032D01*
X1043483Y263698D01*
X1044017Y262365D01*
X1045083Y261698D01*
X1044017Y261032D01*
X1043483Y259698D01*
X1043483Y258365D01*
X1044017Y257032D01*
X1045083Y256365D01*
X1047750Y256365D01*
G54D12*
X1047750Y261698D02*
X1045083Y261698D01*
G54D12*
X1039750Y263032D02*
X1037083Y267032D01*
X1037083Y256365D01*
G54D13*
X1378962Y159100D02*
X1378962Y222750D01*
X1452825Y222750D01*
X1452825Y159100D01*
X1378962Y159100D01*
G54D14*
X1406592Y252312D02*
X1402148Y243424D01*
G54D14*
X1406592Y243424D02*
X1402148Y252312D01*
G54D14*
X1397259Y243424D02*
X1397259Y252312D01*
G54D14*
X1399037Y252312D02*
X1395482Y252312D01*
G54D14*
X1392370Y248979D02*
X1390148Y252312D01*
X1390148Y243424D01*
G54D13*
G75*
G01X1261105Y102075D02*
G03X1261105Y114775I0J6350D01*
G01*
G54D13*
G75*
G01X1261105Y89375D02*
G03X1261105Y102075I0J6350D01*
G01*
G54D13*
G75*
G01X1261105Y76675D02*
G03X1261105Y89375I0J6350D01*
G01*
G54D13*
G75*
G01X1261105Y63975D02*
G03X1261105Y76675I0J6350D01*
G01*
G54D13*
X1214750Y121125D02*
X1233800Y121125D01*
X1243325Y130650D01*
X1284600Y130650D01*
X1294125Y121125D01*
X1313175Y121125D01*
G54D13*
X1214750Y57625D02*
X1233800Y57625D01*
X1243325Y48100D01*
X1284600Y48100D01*
X1294125Y57625D01*
X1313175Y57625D01*
G54D13*
X1214750Y121125D02*
X1214750Y57625D01*
G54D13*
X1313175Y121125D02*
X1313175Y57625D01*
G54D12*
X1345925Y118692D02*
X1345925Y108025D01*
X1342192Y108025D01*
G54D12*
X1338459Y114692D02*
X1335792Y118692D01*
X1335792Y108025D01*
G54D12*
X1341658Y93200D02*
X1345925Y93200D01*
X1345925Y93867D01*
X1345392Y95200D01*
X1342192Y99200D01*
X1341658Y100533D01*
X1341658Y101867D01*
X1342192Y103200D01*
X1343258Y103867D01*
X1344325Y103867D01*
X1345392Y103200D01*
X1345925Y101867D01*
G54D12*
X1333658Y93200D02*
X1337925Y93200D01*
X1337925Y93867D01*
X1337392Y95200D01*
X1334192Y99200D01*
X1333658Y100533D01*
X1333658Y101867D01*
X1334192Y103200D01*
X1335258Y103867D01*
X1336325Y103867D01*
X1337392Y103200D01*
X1337925Y101867D01*
G54D12*
X1326725Y99200D02*
X1326725Y93200D01*
G54D12*
X1326725Y94533D02*
X1327258Y93467D01*
X1328325Y93200D01*
X1329392Y93467D01*
X1329925Y94533D01*
X1329925Y99200D01*
G54D12*
X1322992Y93200D02*
X1322992Y103867D01*
G54D12*
X1318725Y93200D02*
X1318725Y103867D01*
G54D12*
X1322992Y98533D02*
X1318725Y98533D01*
G54D13*
X1290950Y168750D02*
X1290950Y184625D01*
G54D13*
X1303650Y184625D02*
X1278250Y184625D01*
G54D13*
X1303650Y189388D02*
X1278250Y189388D01*
G54D13*
X1290950Y189388D02*
X1290950Y205262D01*
G54D13*
X1298888Y168750D02*
X1298888Y175100D01*
G54D13*
X1302062Y171925D02*
X1295712Y171925D01*
G54D13*
X1312222Y140334D02*
X1312222Y232409D01*
X1269360Y232409D01*
X1269360Y140334D01*
X1312222Y140334D01*
G54D12*
X1307495Y238422D02*
X1308028Y237088D01*
X1309095Y236422D01*
X1310162Y236422D01*
X1311228Y237088D01*
X1311762Y238422D01*
X1311762Y245088D01*
X1311228Y246422D01*
X1310162Y247088D01*
X1309095Y247088D01*
X1308028Y246422D01*
X1307495Y245088D01*
G54D12*
X1303762Y243088D02*
X1301095Y247088D01*
X1301095Y236422D01*
G54D12*
X1286904Y236547D02*
X1286904Y247214D01*
X1290104Y240547D01*
X1290104Y239214D01*
X1285838Y239214D01*
G54D12*
X1282104Y247214D02*
X1277838Y247214D01*
X1278371Y245880D01*
X1279438Y243880D01*
X1280504Y241214D01*
X1281038Y239214D01*
X1281038Y236547D01*
G54D12*
X1270904Y242547D02*
X1270904Y236547D01*
G54D12*
X1270904Y237880D02*
X1271438Y236814D01*
X1272504Y236547D01*
X1273571Y236814D01*
X1274104Y237880D01*
X1274104Y242547D01*
G54D10*
X1236975Y168750D02*
X1236975Y184625D01*
G54D10*
X1249675Y184625D02*
X1224275Y184625D01*
G54D10*
X1249675Y189388D02*
X1224275Y189388D01*
G54D10*
X1236975Y189388D02*
X1236975Y205262D01*
G54D10*
X1244912Y168750D02*
X1244912Y175100D01*
G54D10*
X1248088Y171925D02*
X1241738Y171925D01*
G54D10*
X1258248Y140334D02*
X1258248Y232409D01*
X1215385Y232409D01*
X1215385Y140334D01*
X1258248Y140334D01*
G54D12*
X1253368Y238269D02*
X1253902Y236936D01*
X1254968Y236269D01*
X1256035Y236269D01*
X1257102Y236936D01*
X1257635Y238269D01*
X1257635Y244936D01*
X1257102Y246269D01*
X1256035Y246936D01*
X1254968Y246936D01*
X1253902Y246269D01*
X1253368Y244936D01*
G54D12*
X1245368Y236269D02*
X1249635Y236269D01*
X1249635Y236936D01*
X1249102Y238269D01*
X1245902Y242269D01*
X1245368Y243602D01*
X1245368Y244936D01*
X1245902Y246269D01*
X1246968Y246936D01*
X1248035Y246936D01*
X1249102Y246269D01*
X1249635Y244936D01*
G54D12*
X1232296Y236230D02*
X1232296Y246896D01*
X1235496Y240230D01*
X1235496Y238896D01*
X1231229Y238896D01*
G54D12*
X1227496Y246896D02*
X1223229Y246896D01*
X1223762Y245563D01*
X1224829Y243563D01*
X1225896Y240896D01*
X1226429Y238896D01*
X1226429Y236230D01*
G54D12*
X1216296Y242230D02*
X1216296Y236230D01*
G54D12*
X1216296Y237563D02*
X1216829Y236496D01*
X1217896Y236230D01*
X1218962Y236496D01*
X1219496Y237563D01*
X1219496Y242230D01*
G54D13*
X1208400Y176688D02*
X1209988Y176688D01*
X1209988Y197325D01*
X1208400Y197325D01*
G54D13*
X1189350Y176688D02*
X1187762Y176688D01*
X1187762Y197325D01*
X1189350Y197325D01*
G54D12*
X1200913Y208413D02*
X1201447Y207080D01*
X1202513Y206413D01*
X1203580Y206413D01*
X1204647Y207080D01*
X1205180Y208413D01*
X1205180Y215080D01*
X1204647Y216413D01*
X1203580Y217080D01*
X1202513Y217080D01*
X1201447Y216413D01*
X1200913Y215080D01*
G54D12*
X1197180Y215080D02*
X1196647Y216413D01*
X1195580Y217080D01*
X1194513Y217080D01*
X1193447Y216413D01*
X1192913Y215080D01*
X1192913Y213746D01*
X1193447Y212413D01*
X1194513Y211746D01*
X1193447Y211080D01*
X1192913Y209746D01*
X1192913Y208413D01*
X1193447Y207080D01*
X1194513Y206413D01*
X1195580Y206413D01*
X1196647Y207080D01*
X1197180Y208413D01*
G54D12*
X1203243Y163972D02*
X1203243Y157306D01*
X1203777Y155972D01*
X1204843Y155306D01*
X1205910Y155306D01*
X1206977Y155972D01*
X1207510Y157306D01*
X1207510Y163972D01*
X1206977Y165306D01*
X1205910Y165972D01*
X1204843Y165972D01*
X1203777Y165306D01*
X1203243Y163972D01*
G54D12*
X1199083Y155306D02*
X1199510Y155306D01*
X1199510Y155839D01*
X1199083Y155839D01*
X1199083Y155306D01*
X1199510Y155306D01*
G54D12*
X1195350Y161972D02*
X1192683Y165972D01*
X1192683Y155306D01*
G54D13*
X795650Y102075D02*
X795650Y103662D01*
X775012Y103662D01*
X775012Y102075D01*
G54D13*
X795650Y83025D02*
X795650Y81438D01*
X775012Y81438D01*
X775012Y83025D01*
G54D12*
X829768Y89388D02*
X830302Y88055D01*
X831368Y87388D01*
X832435Y87388D01*
X833502Y88055D01*
X834035Y89388D01*
X834035Y96055D01*
X833502Y97388D01*
X832435Y98055D01*
X831368Y98055D01*
X830302Y97388D01*
X829768Y96055D01*
G54D12*
X822835Y87388D02*
X822835Y98055D01*
X826035Y91388D01*
X826035Y90055D01*
X821768Y90055D01*
G54D12*
X817525Y93517D02*
X814858Y97517D01*
X814858Y86850D01*
G54D12*
X806858Y97517D02*
X811125Y97517D01*
X811125Y92850D01*
X810592Y92850D01*
X809525Y93517D01*
X808458Y93517D01*
X807392Y92850D01*
X806858Y91517D01*
X806858Y88850D01*
X807392Y87517D01*
X808458Y86850D01*
X809525Y86850D01*
X810592Y87517D01*
X811125Y88850D01*
G54D13*
X795650Y127475D02*
X795650Y129062D01*
X775012Y129062D01*
X775012Y127475D01*
G54D13*
X795650Y108425D02*
X795650Y106838D01*
X775012Y106838D01*
X775012Y108425D01*
G54D12*
X829768Y114470D02*
X830302Y113136D01*
X831368Y112470D01*
X832435Y112470D01*
X833502Y113136D01*
X834035Y114470D01*
X834035Y121136D01*
X833502Y122470D01*
X832435Y123136D01*
X831368Y123136D01*
X830302Y122470D01*
X829768Y121136D01*
G54D12*
X821768Y123136D02*
X826035Y123136D01*
X826035Y118470D01*
X825502Y118470D01*
X824435Y119136D01*
X823368Y119136D01*
X822302Y118470D01*
X821768Y117136D01*
X821768Y114470D01*
X822302Y113136D01*
X823368Y112470D01*
X824435Y112470D01*
X825502Y113136D01*
X826035Y114470D01*
G54D12*
X817525Y119234D02*
X814858Y123234D01*
X814858Y112567D01*
G54D12*
X806858Y123234D02*
X811125Y123234D01*
X811125Y118567D01*
X810592Y118567D01*
X809525Y119234D01*
X808458Y119234D01*
X807392Y118567D01*
X806858Y117234D01*
X806858Y114567D01*
X807392Y113234D01*
X808458Y112567D01*
X809525Y112567D01*
X810592Y113234D01*
X811125Y114567D01*
G54D13*
X770250Y197325D02*
X770250Y195738D01*
X790888Y195738D01*
X790888Y197325D01*
G54D13*
X770250Y216375D02*
X770250Y217962D01*
X790888Y217962D01*
X790888Y216375D01*
G54D12*
X791935Y224301D02*
X792469Y222968D01*
X793535Y222301D01*
X794602Y222301D01*
X795669Y222968D01*
X796202Y224301D01*
X796202Y230968D01*
X795669Y232301D01*
X794602Y232968D01*
X793535Y232968D01*
X792469Y232301D01*
X791935Y230968D01*
G54D12*
X783935Y230968D02*
X784469Y232301D01*
X785535Y232968D01*
X786602Y232968D01*
X787669Y232301D01*
X788202Y230968D01*
X788202Y227634D01*
X788202Y226968D01*
X786602Y228301D01*
X785535Y228301D01*
X784469Y227634D01*
X783935Y226301D01*
X783935Y224301D01*
X784469Y222968D01*
X785535Y222301D01*
X786602Y222301D01*
X787669Y222968D01*
X788202Y224301D01*
X788202Y227634D01*
G54D12*
X771635Y231188D02*
X771635Y224521D01*
X772169Y223188D01*
X773235Y222521D01*
X774302Y222521D01*
X775369Y223188D01*
X775902Y224521D01*
X775902Y231188D01*
X775369Y232521D01*
X774302Y233188D01*
X773235Y233188D01*
X772169Y232521D01*
X771635Y231188D01*
G54D12*
X767475Y222521D02*
X767902Y222521D01*
X767902Y223054D01*
X767475Y223054D01*
X767475Y222521D01*
X767902Y222521D01*
G54D12*
X763742Y229188D02*
X761075Y233188D01*
X761075Y222521D01*
G54D13*
X500375Y473550D02*
X500375Y475138D01*
X479738Y475138D01*
X479738Y473550D01*
G54D13*
X500375Y454500D02*
X500375Y452912D01*
X479738Y452912D01*
X479738Y454500D01*
G54D12*
X522746Y466578D02*
X523279Y465245D01*
X524346Y464578D01*
X525412Y464578D01*
X526479Y465245D01*
X527012Y466578D01*
X527012Y473245D01*
X526479Y474578D01*
X525412Y475245D01*
X524346Y475245D01*
X523279Y474578D01*
X522746Y473245D01*
G54D12*
X519012Y475245D02*
X514746Y475245D01*
X515279Y473911D01*
X516346Y471911D01*
X517412Y469245D01*
X517946Y467245D01*
X517946Y464578D01*
G54D12*
X522746Y459055D02*
X522746Y452388D01*
X523279Y451055D01*
X524346Y450388D01*
X525412Y450388D01*
X526479Y451055D01*
X527012Y452388D01*
X527012Y459055D01*
X526479Y460388D01*
X525412Y461055D01*
X524346Y461055D01*
X523279Y460388D01*
X522746Y459055D01*
G54D12*
X518586Y450388D02*
X519012Y450388D01*
X519012Y450921D01*
X518586Y450921D01*
X518586Y450388D01*
X519012Y450388D01*
G54D12*
X514852Y457055D02*
X512186Y461055D01*
X512186Y450388D01*
G54D13*
X509900Y178275D02*
X509900Y179862D01*
X489262Y179862D01*
X489262Y178275D01*
G54D13*
X509900Y159225D02*
X509900Y157638D01*
X489262Y157638D01*
X489262Y159225D01*
G54D12*
X530683Y171938D02*
X531217Y170605D01*
X532283Y169938D01*
X533350Y169938D01*
X534417Y170605D01*
X534950Y171938D01*
X534950Y178605D01*
X534417Y179938D01*
X533350Y180605D01*
X532283Y180605D01*
X531217Y179938D01*
X530683Y178605D01*
G54D12*
X524283Y175271D02*
X525350Y175271D01*
X526417Y175938D01*
X526950Y177271D01*
X526950Y178605D01*
X526417Y179938D01*
X525350Y180605D01*
X524283Y180605D01*
X523217Y179938D01*
X522683Y178605D01*
X522683Y177271D01*
X523217Y175938D01*
X524283Y175271D01*
X523217Y174605D01*
X522683Y173271D01*
X522683Y171938D01*
X523217Y170605D01*
X524283Y169938D01*
X525350Y169938D01*
X526417Y170605D01*
X526950Y171938D01*
X526950Y173271D01*
X526417Y174605D01*
X525350Y175271D01*
G54D12*
X530683Y163780D02*
X530683Y157113D01*
X531217Y155780D01*
X532283Y155113D01*
X533350Y155113D01*
X534417Y155780D01*
X534950Y157113D01*
X534950Y163780D01*
X534417Y165113D01*
X533350Y165780D01*
X532283Y165780D01*
X531217Y165113D01*
X530683Y163780D01*
G54D12*
X526523Y155113D02*
X526950Y155113D01*
X526950Y155646D01*
X526523Y155646D01*
X526523Y155113D01*
X526950Y155113D01*
G54D12*
X522790Y161780D02*
X520123Y165780D01*
X520123Y155113D01*
G54D13*
X500375Y314800D02*
X500375Y316388D01*
X479738Y316388D01*
X479738Y314800D01*
G54D13*
X500375Y295750D02*
X500375Y294162D01*
X479738Y294162D01*
X479738Y295750D01*
G54D12*
X521158Y311637D02*
X521692Y310304D01*
X522758Y309637D01*
X523825Y309637D01*
X524892Y310304D01*
X525425Y311637D01*
X525425Y318304D01*
X524892Y319637D01*
X523825Y320304D01*
X522758Y320304D01*
X521692Y319637D01*
X521158Y318304D01*
G54D12*
X517425Y311637D02*
X516892Y310304D01*
X515825Y309637D01*
X514758Y309637D01*
X513692Y310304D01*
X513158Y311637D01*
X513158Y314970D01*
X513158Y315637D01*
X514758Y314304D01*
X515825Y314304D01*
X516892Y314970D01*
X517425Y316304D01*
X517425Y318304D01*
X516892Y319637D01*
X515825Y320304D01*
X514758Y320304D01*
X513692Y319637D01*
X513158Y318304D01*
X513158Y314970D01*
G54D12*
X521158Y305066D02*
X521158Y298400D01*
X521692Y297066D01*
X522758Y296400D01*
X523825Y296400D01*
X524892Y297066D01*
X525425Y298400D01*
X525425Y305066D01*
X524892Y306400D01*
X523825Y307066D01*
X522758Y307066D01*
X521692Y306400D01*
X521158Y305066D01*
G54D12*
X516998Y296400D02*
X517425Y296400D01*
X517425Y296933D01*
X516998Y296933D01*
X516998Y296400D01*
X517425Y296400D01*
G54D12*
X513265Y303066D02*
X510598Y307066D01*
X510598Y296400D01*
G54D13*
X500338Y340200D02*
X500338Y341788D01*
X479700Y341788D01*
X479700Y340200D01*
G54D13*
X500338Y321150D02*
X500338Y319562D01*
X479700Y319562D01*
X479700Y321150D01*
G54D12*
X522708Y354500D02*
X523242Y353166D01*
X524308Y352500D01*
X525375Y352500D01*
X526442Y353166D01*
X526975Y354500D01*
X526975Y361166D01*
X526442Y362500D01*
X525375Y363166D01*
X524308Y363166D01*
X523242Y362500D01*
X522708Y361166D01*
G54D12*
X518975Y359166D02*
X516308Y363166D01*
X516308Y352500D01*
G54D12*
X508308Y361166D02*
X508308Y354500D01*
X508842Y353166D01*
X509908Y352500D01*
X510975Y352500D01*
X512042Y353166D01*
X512575Y354500D01*
X512575Y361166D01*
X512042Y362500D01*
X510975Y363166D01*
X509908Y363166D01*
X508842Y362500D01*
X508308Y361166D01*
G54D12*
X522708Y346341D02*
X522708Y339674D01*
X523242Y338341D01*
X524308Y337674D01*
X525375Y337674D01*
X526442Y338341D01*
X526975Y339674D01*
X526975Y346341D01*
X526442Y347674D01*
X525375Y348341D01*
X524308Y348341D01*
X523242Y347674D01*
X522708Y346341D01*
G54D12*
X518548Y337674D02*
X518975Y337674D01*
X518975Y338208D01*
X518548Y338208D01*
X518548Y337674D01*
X518975Y337674D01*
G54D12*
X514815Y344341D02*
X512148Y348341D01*
X512148Y337674D01*
G54D13*
X1144862Y257650D02*
X1144862Y259238D01*
X1124225Y259238D01*
X1124225Y257650D01*
G54D13*
X1144862Y238600D02*
X1144862Y237012D01*
X1124225Y237012D01*
X1124225Y238600D01*
G54D12*
X1140246Y265600D02*
X1140779Y264266D01*
X1141846Y263600D01*
X1142912Y263600D01*
X1143979Y264266D01*
X1144512Y265600D01*
X1144512Y272266D01*
X1143979Y273600D01*
X1142912Y274266D01*
X1141846Y274266D01*
X1140779Y273600D01*
X1140246Y272266D01*
G54D12*
X1136512Y270266D02*
X1133846Y274266D01*
X1133846Y263600D01*
G54D12*
X1130112Y270266D02*
X1127446Y274266D01*
X1127446Y263600D01*
G54D12*
X1138658Y232041D02*
X1138658Y225374D01*
X1139192Y224041D01*
X1140258Y223374D01*
X1141325Y223374D01*
X1142392Y224041D01*
X1142925Y225374D01*
X1142925Y232041D01*
X1142392Y233374D01*
X1141325Y234041D01*
X1140258Y234041D01*
X1139192Y233374D01*
X1138658Y232041D01*
G54D12*
X1134498Y223374D02*
X1134925Y223374D01*
X1134925Y223908D01*
X1134498Y223908D01*
X1134498Y223374D01*
X1134925Y223374D01*
G54D12*
X1130765Y230041D02*
X1128098Y234041D01*
X1128098Y223374D01*
G54D13*
X802000Y626585D02*
X800412Y626585D01*
X800412Y605948D01*
X802000Y605948D01*
G54D13*
X821050Y626585D02*
X822638Y626585D01*
X822638Y605948D01*
X821050Y605948D01*
G54D12*
X841820Y634206D02*
X842353Y632872D01*
X843420Y632206D01*
X844486Y632206D01*
X845553Y632872D01*
X846086Y634206D01*
X846086Y640872D01*
X845553Y642206D01*
X844486Y642872D01*
X843420Y642872D01*
X842353Y642206D01*
X841820Y640872D01*
G54D12*
X838086Y638872D02*
X835420Y642872D01*
X835420Y632206D01*
G54D12*
X827420Y632206D02*
X831686Y632206D01*
X831686Y632872D01*
X831153Y634206D01*
X827953Y638206D01*
X827420Y639539D01*
X827420Y640872D01*
X827953Y642206D01*
X829020Y642872D01*
X830086Y642872D01*
X831153Y642206D01*
X831686Y640872D01*
G54D12*
X815037Y594532D02*
X815037Y587866D01*
X815571Y586532D01*
X816637Y585866D01*
X817704Y585866D01*
X818771Y586532D01*
X819304Y587866D01*
X819304Y594532D01*
X818771Y595866D01*
X817704Y596532D01*
X816637Y596532D01*
X815571Y595866D01*
X815037Y594532D01*
G54D12*
X810877Y585866D02*
X811304Y585866D01*
X811304Y586399D01*
X810877Y586399D01*
X810877Y585866D01*
X811304Y585866D01*
G54D12*
X807144Y592532D02*
X804477Y596532D01*
X804477Y585866D01*
G54D13*
X1290950Y302100D02*
X1290950Y303688D01*
X1270312Y303688D01*
X1270312Y302100D01*
G54D13*
X1290950Y283050D02*
X1290950Y281462D01*
X1270312Y281462D01*
X1270312Y283050D01*
G54D12*
X1286333Y323543D02*
X1286867Y322210D01*
X1287933Y321543D01*
X1289000Y321543D01*
X1290067Y322210D01*
X1290600Y323543D01*
X1290600Y330210D01*
X1290067Y331543D01*
X1289000Y332210D01*
X1287933Y332210D01*
X1286867Y331543D01*
X1286333Y330210D01*
G54D12*
X1282600Y328210D02*
X1279933Y332210D01*
X1279933Y321543D01*
G54D12*
X1276200Y330210D02*
X1275667Y331543D01*
X1274600Y332210D01*
X1273533Y332210D01*
X1272467Y331543D01*
X1271933Y330210D01*
X1271933Y328877D01*
X1272467Y327543D01*
X1273533Y326877D01*
X1272467Y326210D01*
X1271933Y324877D01*
X1271933Y323543D01*
X1272467Y322210D01*
X1273533Y321543D01*
X1274600Y321543D01*
X1275667Y322210D01*
X1276200Y323543D01*
G54D12*
X1287921Y316179D02*
X1287921Y309512D01*
X1288454Y308179D01*
X1289521Y307512D01*
X1290588Y307512D01*
X1291654Y308179D01*
X1292188Y309512D01*
X1292188Y316179D01*
X1291654Y317512D01*
X1290588Y318179D01*
X1289521Y318179D01*
X1288454Y317512D01*
X1287921Y316179D01*
G54D12*
X1283761Y307512D02*
X1284188Y307512D01*
X1284188Y308045D01*
X1283761Y308045D01*
X1283761Y307512D01*
X1284188Y307512D01*
G54D12*
X1275761Y316179D02*
X1275761Y309512D01*
X1276294Y308179D01*
X1277361Y307512D01*
X1278428Y307512D01*
X1279494Y308179D01*
X1280028Y309512D01*
X1280028Y316179D01*
X1279494Y317512D01*
X1278428Y318179D01*
X1277361Y318179D01*
X1276294Y317512D01*
X1275761Y316179D01*
G54D12*
X1272028Y314179D02*
X1269361Y318179D01*
X1269361Y307512D01*
G54D13*
X1336988Y302100D02*
X1336988Y303688D01*
X1316350Y303688D01*
X1316350Y302100D01*
G54D13*
X1336988Y283050D02*
X1336988Y281462D01*
X1316350Y281462D01*
X1316350Y283050D01*
G54D12*
X1332371Y324338D02*
X1332904Y323005D01*
X1333971Y322338D01*
X1335038Y322338D01*
X1336104Y323005D01*
X1336638Y324338D01*
X1336638Y331005D01*
X1336104Y332338D01*
X1335038Y333005D01*
X1333971Y333005D01*
X1332904Y332338D01*
X1332371Y331005D01*
G54D12*
X1328638Y329005D02*
X1325971Y333005D01*
X1325971Y322338D01*
G54D12*
X1319038Y322338D02*
X1319038Y333005D01*
X1322238Y326338D01*
X1322238Y325005D01*
X1317971Y325005D01*
G54D12*
X1333958Y316180D02*
X1333958Y309513D01*
X1334492Y308180D01*
X1335558Y307513D01*
X1336625Y307513D01*
X1337692Y308180D01*
X1338225Y309513D01*
X1338225Y316180D01*
X1337692Y317513D01*
X1336625Y318180D01*
X1335558Y318180D01*
X1334492Y317513D01*
X1333958Y316180D01*
G54D12*
X1329798Y307513D02*
X1330225Y307513D01*
X1330225Y308046D01*
X1329798Y308046D01*
X1329798Y307513D01*
X1330225Y307513D01*
G54D12*
X1321798Y316180D02*
X1321798Y309513D01*
X1322332Y308180D01*
X1323398Y307513D01*
X1324465Y307513D01*
X1325532Y308180D01*
X1326065Y309513D01*
X1326065Y316180D01*
X1325532Y317513D01*
X1324465Y318180D01*
X1323398Y318180D01*
X1322332Y317513D01*
X1321798Y316180D01*
G54D12*
X1318065Y314180D02*
X1315398Y318180D01*
X1315398Y307513D01*
G54D13*
X603562Y156050D02*
X605944Y156050D01*
X605944Y185418D01*
X603562Y185418D01*
G54D13*
X581337Y156050D02*
X578956Y156050D01*
X578956Y185418D01*
X581337Y185418D01*
G54D12*
X595827Y202307D02*
X594227Y200974D01*
X593693Y199641D01*
X593693Y196974D01*
G54D12*
X597960Y196974D02*
X597960Y207641D01*
X595293Y207641D01*
X594227Y206974D01*
X593693Y205641D01*
X593693Y204307D01*
X594227Y202974D01*
X595293Y202307D01*
X597960Y202307D01*
G54D12*
X585693Y196974D02*
X589960Y196974D01*
X589960Y197641D01*
X589427Y198974D01*
X586227Y202974D01*
X585693Y204307D01*
X585693Y205641D01*
X586227Y206974D01*
X587293Y207641D01*
X588360Y207641D01*
X589427Y206974D01*
X589960Y205641D01*
G54D14*
X599928Y166562D02*
X599928Y175450D01*
X602595Y169895D01*
X602595Y168784D01*
X599039Y168784D01*
G54D14*
X595572Y166562D02*
X595928Y166562D01*
X595928Y167006D01*
X595572Y167006D01*
X595572Y166562D01*
X595928Y166562D01*
G54D14*
X592461Y175450D02*
X588905Y175450D01*
X589350Y174339D01*
X590239Y172673D01*
X591128Y170450D01*
X591572Y168784D01*
X591572Y166562D01*
G54D14*
X585794Y166562D02*
X585794Y175450D01*
G54D14*
X584461Y169895D02*
X583127Y166562D01*
G54D14*
X585794Y168784D02*
X583127Y171562D01*
G54D13*
X583243Y443387D02*
X583243Y445768D01*
X553874Y445768D01*
X553874Y443387D01*
G54D13*
X583243Y421162D02*
X583243Y418781D01*
X553874Y418781D01*
X553874Y421162D01*
G54D12*
X606072Y433239D02*
X604472Y431906D01*
X603938Y430572D01*
X603938Y427906D01*
G54D12*
X608205Y427906D02*
X608205Y438572D01*
X605538Y438572D01*
X604472Y437906D01*
X603938Y436572D01*
X603938Y435239D01*
X604472Y433906D01*
X605538Y433239D01*
X608205Y433239D01*
G54D12*
X600205Y436572D02*
X599672Y437906D01*
X598605Y438572D01*
X597538Y438572D01*
X596472Y437906D01*
X595938Y436572D01*
X595938Y435239D01*
X596472Y433906D01*
X597538Y433239D01*
X596472Y432572D01*
X595938Y431239D01*
X595938Y429906D01*
X596472Y428572D01*
X597538Y427906D01*
X598605Y427906D01*
X599672Y428572D01*
X600205Y429906D01*
G54D14*
X563842Y425650D02*
X572730Y425650D01*
X567175Y422984D01*
X566064Y422984D01*
X566064Y426539D01*
G54D14*
X563842Y430006D02*
X563842Y429650D01*
X564286Y429650D01*
X564286Y430006D01*
X563842Y430006D01*
X563842Y429650D01*
G54D14*
X572730Y433118D02*
X572730Y436673D01*
X571619Y436229D01*
X569953Y435340D01*
X567730Y434451D01*
X566064Y434006D01*
X563842Y434006D01*
G54D14*
X563842Y439784D02*
X572730Y439784D01*
G54D14*
X567175Y441118D02*
X563842Y442451D01*
G54D14*
X566064Y439784D02*
X568842Y442451D01*
G54D13*
X568638Y471962D02*
X568638Y474344D01*
X539269Y474344D01*
X539269Y471962D01*
G54D13*
X568638Y449737D02*
X568638Y447356D01*
X539269Y447356D01*
X539269Y449737D01*
G54D12*
X589879Y461814D02*
X588279Y460480D01*
X587746Y459147D01*
X587746Y456480D01*
G54D12*
X592012Y456480D02*
X592012Y467147D01*
X589346Y467147D01*
X588279Y466480D01*
X587746Y465147D01*
X587746Y463814D01*
X588279Y462480D01*
X589346Y461814D01*
X592012Y461814D01*
G54D12*
X580812Y456480D02*
X580812Y467147D01*
X584012Y460480D01*
X584012Y459147D01*
X579746Y459147D01*
G54D14*
X549236Y454225D02*
X558125Y454225D01*
X552570Y451558D01*
X551459Y451558D01*
X551459Y455114D01*
G54D14*
X549236Y458581D02*
X549236Y458226D01*
X549681Y458226D01*
X549681Y458581D01*
X549236Y458581D01*
X549236Y458226D01*
G54D14*
X558125Y461692D02*
X558125Y465248D01*
X557014Y464804D01*
X555348Y463915D01*
X553125Y463026D01*
X551459Y462581D01*
X549236Y462581D01*
G54D14*
X549236Y468360D02*
X558125Y468360D01*
G54D14*
X552570Y469693D02*
X549236Y471026D01*
G54D14*
X551459Y468360D02*
X554236Y471026D01*
G54D13*
X725800Y583087D02*
X725800Y585468D01*
X696432Y585468D01*
X696432Y583087D01*
G54D13*
X725800Y560862D02*
X725800Y558481D01*
X696432Y558481D01*
X696432Y560862D01*
G54D12*
X747042Y571351D02*
X745442Y570018D01*
X744908Y568685D01*
X744908Y566018D01*
G54D12*
X749175Y566018D02*
X749175Y576685D01*
X746508Y576685D01*
X745442Y576018D01*
X744908Y574685D01*
X744908Y573351D01*
X745442Y572018D01*
X746508Y571351D01*
X749175Y571351D01*
G54D12*
X736908Y576685D02*
X741175Y576685D01*
X741175Y572018D01*
X740642Y572018D01*
X739575Y572685D01*
X738508Y572685D01*
X737442Y572018D01*
X736908Y570685D01*
X736908Y568018D01*
X737442Y566685D01*
X738508Y566018D01*
X739575Y566018D01*
X740642Y566685D01*
X741175Y568018D01*
G54D14*
X706399Y565350D02*
X715288Y565350D01*
X709732Y562684D01*
X708621Y562684D01*
X708621Y566239D01*
G54D14*
X706399Y569706D02*
X706399Y569350D01*
X706843Y569350D01*
X706843Y569706D01*
X706399Y569706D01*
X706399Y569350D01*
G54D14*
X715288Y572818D02*
X715288Y576373D01*
X714177Y575929D01*
X712510Y575040D01*
X710288Y574151D01*
X708621Y573706D01*
X706399Y573706D01*
G54D14*
X706399Y579484D02*
X715288Y579484D01*
G54D14*
X709732Y580818D02*
X706399Y582151D01*
G54D14*
X708621Y579484D02*
X711399Y582151D01*
G54D13*
X186050Y516412D02*
X186050Y518794D01*
X156682Y518794D01*
X156682Y516412D01*
G54D13*
X186050Y494187D02*
X186050Y491806D01*
X156682Y491806D01*
X156682Y494187D01*
G54D12*
X173954Y526901D02*
X172354Y525568D01*
X171821Y524235D01*
X171821Y521568D01*
G54D12*
X176088Y521568D02*
X176088Y532235D01*
X173421Y532235D01*
X172354Y531568D01*
X171821Y530235D01*
X171821Y528901D01*
X172354Y527568D01*
X173421Y526901D01*
X176088Y526901D01*
G54D12*
X165421Y526901D02*
X166488Y526901D01*
X167554Y527568D01*
X168088Y528901D01*
X168088Y530235D01*
X167554Y531568D01*
X166488Y532235D01*
X165421Y532235D01*
X164354Y531568D01*
X163821Y530235D01*
X163821Y528901D01*
X164354Y527568D01*
X165421Y526901D01*
X164354Y526235D01*
X163821Y524901D01*
X163821Y523568D01*
X164354Y522235D01*
X165421Y521568D01*
X166488Y521568D01*
X167554Y522235D01*
X168088Y523568D01*
X168088Y524901D01*
X167554Y526235D01*
X166488Y526901D01*
G54D14*
X175538Y500834D02*
X175538Y497278D01*
X171649Y497278D01*
X171649Y497723D01*
X172204Y498612D01*
X172204Y499501D01*
X171649Y500390D01*
X170538Y500834D01*
X168316Y500834D01*
X167204Y500390D01*
X166649Y499501D01*
X166649Y498612D01*
X167204Y497723D01*
X168316Y497278D01*
G54D14*
X172204Y503946D02*
X175538Y506168D01*
X166649Y506168D01*
G54D14*
X173871Y512834D02*
X168316Y512834D01*
X167204Y512390D01*
X166649Y511501D01*
X166649Y510612D01*
X167204Y509723D01*
X168316Y509278D01*
X173871Y509278D01*
X174982Y509723D01*
X175538Y510612D01*
X175538Y511501D01*
X174982Y512390D01*
X173871Y512834D01*
G54D13*
X186050Y357662D02*
X186050Y360044D01*
X156682Y360044D01*
X156682Y357662D01*
G54D13*
X186050Y335437D02*
X186050Y333056D01*
X156682Y333056D01*
X156682Y335437D01*
G54D12*
X173954Y368151D02*
X172354Y366818D01*
X171821Y365485D01*
X171821Y362818D01*
G54D12*
X176088Y362818D02*
X176088Y373485D01*
X173421Y373485D01*
X172354Y372818D01*
X171821Y371485D01*
X171821Y370151D01*
X172354Y368818D01*
X173421Y368151D01*
X176088Y368151D01*
G54D12*
X168088Y373485D02*
X163821Y373485D01*
X164354Y372151D01*
X165421Y370151D01*
X166488Y367485D01*
X167021Y365485D01*
X167021Y362818D01*
G54D14*
X175538Y342084D02*
X175538Y338528D01*
X171649Y338528D01*
X171649Y338973D01*
X172204Y339862D01*
X172204Y340751D01*
X171649Y341640D01*
X170538Y342084D01*
X168316Y342084D01*
X167204Y341640D01*
X166649Y340751D01*
X166649Y339862D01*
X167204Y338973D01*
X168316Y338528D01*
G54D14*
X172204Y345196D02*
X175538Y347418D01*
X166649Y347418D01*
G54D14*
X173871Y354084D02*
X168316Y354084D01*
X167204Y353640D01*
X166649Y352751D01*
X166649Y351862D01*
X167204Y350973D01*
X168316Y350528D01*
X173871Y350528D01*
X174982Y350973D01*
X175538Y351862D01*
X175538Y352751D01*
X174982Y353640D01*
X173871Y354084D01*
G54D13*
X186050Y198912D02*
X186050Y201294D01*
X156682Y201294D01*
X156682Y198912D01*
G54D13*
X186050Y176687D02*
X186050Y174306D01*
X156682Y174306D01*
X156682Y176687D01*
G54D12*
X173954Y210989D02*
X172354Y209656D01*
X171821Y208322D01*
X171821Y205656D01*
G54D12*
X176088Y205656D02*
X176088Y216322D01*
X173421Y216322D01*
X172354Y215656D01*
X171821Y214322D01*
X171821Y212989D01*
X172354Y211656D01*
X173421Y210989D01*
X176088Y210989D01*
G54D12*
X163821Y214322D02*
X164354Y215656D01*
X165421Y216322D01*
X166488Y216322D01*
X167554Y215656D01*
X168088Y214322D01*
X168088Y210989D01*
X168088Y210322D01*
X166488Y211656D01*
X165421Y211656D01*
X164354Y210989D01*
X163821Y209656D01*
X163821Y207656D01*
X164354Y206322D01*
X165421Y205656D01*
X166488Y205656D01*
X167554Y206322D01*
X168088Y207656D01*
X168088Y210989D01*
G54D14*
X175538Y183334D02*
X175538Y179778D01*
X171649Y179778D01*
X171649Y180223D01*
X172204Y181112D01*
X172204Y182001D01*
X171649Y182890D01*
X170538Y183334D01*
X168316Y183334D01*
X167204Y182890D01*
X166649Y182001D01*
X166649Y181112D01*
X167204Y180223D01*
X168316Y179778D01*
G54D14*
X172204Y186446D02*
X175538Y188668D01*
X166649Y188668D01*
G54D14*
X173871Y195334D02*
X168316Y195334D01*
X167204Y194890D01*
X166649Y194001D01*
X166649Y193112D01*
X167204Y192223D01*
X168316Y191778D01*
X173871Y191778D01*
X174982Y192223D01*
X175538Y193112D01*
X175538Y194001D01*
X174982Y194890D01*
X173871Y195334D01*
G54D13*
X776600Y367187D02*
X776600Y369568D01*
X747232Y369568D01*
X747232Y367187D01*
G54D13*
X776600Y344962D02*
X776600Y342581D01*
X747232Y342581D01*
X747232Y344962D01*
G54D12*
X804827Y357674D02*
X803227Y356340D01*
X802693Y355007D01*
X802693Y352340D01*
G54D12*
X806960Y352340D02*
X806960Y363007D01*
X804293Y363007D01*
X803227Y362340D01*
X802693Y361007D01*
X802693Y359674D01*
X803227Y358340D01*
X804293Y357674D01*
X806960Y357674D01*
G54D12*
X798960Y359007D02*
X796293Y363007D01*
X796293Y352340D01*
G54D12*
X788293Y363007D02*
X792560Y363007D01*
X792560Y358340D01*
X792027Y358340D01*
X790960Y359007D01*
X789893Y359007D01*
X788827Y358340D01*
X788293Y357007D01*
X788293Y354340D01*
X788827Y353007D01*
X789893Y352340D01*
X790960Y352340D01*
X792027Y353007D01*
X792560Y354340D01*
G54D14*
X763072Y352181D02*
X766405Y354403D01*
X757516Y354403D01*
G54D14*
X757516Y357514D02*
X766405Y357514D01*
G54D14*
X760850Y358847D02*
X757516Y360181D01*
G54D14*
X759739Y357514D02*
X762516Y360181D01*
G54D13*
X787712Y298925D02*
X790094Y298925D01*
X790094Y328294D01*
X787712Y328294D01*
G54D13*
X765487Y298925D02*
X763106Y298925D01*
X763106Y328294D01*
X765487Y328294D01*
G54D12*
X800424Y305941D02*
X799090Y307541D01*
X797757Y308074D01*
X795090Y308074D01*
G54D12*
X795090Y303808D02*
X805757Y303808D01*
X805757Y306474D01*
X805090Y307541D01*
X803757Y308074D01*
X802424Y308074D01*
X801090Y307541D01*
X800424Y306474D01*
X800424Y303808D01*
G54D12*
X801757Y311808D02*
X805757Y314474D01*
X795090Y314474D01*
G54D12*
X803757Y322474D02*
X805090Y321941D01*
X805757Y320874D01*
X805757Y319808D01*
X805090Y318741D01*
X803757Y318208D01*
X800424Y318208D01*
X799757Y318208D01*
X801090Y319808D01*
X801090Y320874D01*
X800424Y321941D01*
X799090Y322474D01*
X797090Y322474D01*
X795757Y321941D01*
X795090Y320874D01*
X795090Y319808D01*
X795757Y318741D01*
X797090Y318208D01*
X800424Y318208D01*
G54D14*
X783296Y314676D02*
X781074Y318009D01*
X781074Y309120D01*
G54D14*
X774407Y316342D02*
X774407Y310787D01*
X774852Y309676D01*
X775741Y309120D01*
X776630Y309120D01*
X777519Y309676D01*
X777963Y310787D01*
X777963Y316342D01*
X777519Y317453D01*
X776630Y318009D01*
X775741Y318009D01*
X774852Y317453D01*
X774407Y316342D01*
G54D14*
X771296Y309120D02*
X771296Y318009D01*
G54D14*
X769963Y312453D02*
X768629Y309120D01*
G54D14*
X771296Y311342D02*
X768629Y314120D01*
G54D13*
X633725Y156050D02*
X636106Y156050D01*
X636106Y185418D01*
X633725Y185418D01*
G54D13*
X611500Y156050D02*
X609118Y156050D01*
X609118Y185418D01*
X611500Y185418D01*
G54D12*
X628453Y201470D02*
X626853Y200137D01*
X626319Y198804D01*
X626319Y196137D01*
G54D12*
X630586Y196137D02*
X630586Y206804D01*
X627919Y206804D01*
X626853Y206137D01*
X626319Y204804D01*
X626319Y203470D01*
X626853Y202137D01*
X627919Y201470D01*
X630586Y201470D01*
G54D12*
X622586Y202804D02*
X619919Y206804D01*
X619919Y196137D01*
G54D12*
X616186Y206804D02*
X611919Y206804D01*
X612453Y205470D01*
X613519Y203470D01*
X614586Y200804D01*
X615119Y198804D01*
X615119Y196137D01*
G54D14*
X629308Y171801D02*
X627086Y175134D01*
X627086Y166245D01*
G54D14*
X620420Y173467D02*
X620420Y167912D01*
X620864Y166801D01*
X621753Y166245D01*
X622642Y166245D01*
X623531Y166801D01*
X623976Y167912D01*
X623976Y173467D01*
X623531Y174578D01*
X622642Y175134D01*
X621753Y175134D01*
X620864Y174578D01*
X620420Y173467D01*
G54D14*
X617308Y166245D02*
X617308Y175134D01*
G54D14*
X615975Y169578D02*
X614642Y166245D01*
G54D14*
X617308Y168467D02*
X614642Y171245D01*
G54D13*
X186050Y465612D02*
X186050Y467994D01*
X156682Y467994D01*
X156682Y465612D01*
G54D13*
X186050Y443387D02*
X186050Y441006D01*
X156682Y441006D01*
X156682Y443387D01*
G54D12*
X181892Y479276D02*
X180292Y477943D01*
X179758Y476610D01*
X179758Y473943D01*
G54D12*
X184025Y473943D02*
X184025Y484610D01*
X181358Y484610D01*
X180292Y483943D01*
X179758Y482610D01*
X179758Y481276D01*
X180292Y479943D01*
X181358Y479276D01*
X184025Y479276D01*
G54D12*
X176025Y480610D02*
X173358Y484610D01*
X173358Y473943D01*
G54D12*
X166958Y479276D02*
X168025Y479276D01*
X169092Y479943D01*
X169625Y481276D01*
X169625Y482610D01*
X169092Y483943D01*
X168025Y484610D01*
X166958Y484610D01*
X165892Y483943D01*
X165358Y482610D01*
X165358Y481276D01*
X165892Y479943D01*
X166958Y479276D01*
X165892Y478610D01*
X165358Y477276D01*
X165358Y475943D01*
X165892Y474610D01*
X166958Y473943D01*
X168025Y473943D01*
X169092Y474610D01*
X169625Y475943D01*
X169625Y477276D01*
X169092Y478610D01*
X168025Y479276D01*
G54D14*
X166649Y447875D02*
X175538Y447875D01*
X169982Y445208D01*
X168871Y445208D01*
X168871Y448764D01*
G54D14*
X166649Y452231D02*
X166649Y451876D01*
X167094Y451876D01*
X167094Y452231D01*
X166649Y452231D01*
X166649Y451876D01*
G54D14*
X175538Y455342D02*
X175538Y458898D01*
X174427Y458454D01*
X172760Y457565D01*
X170538Y456676D01*
X168871Y456231D01*
X166649Y456231D01*
G54D14*
X166649Y462010D02*
X175538Y462010D01*
G54D14*
X169982Y463343D02*
X166649Y464676D01*
G54D14*
X168871Y462010D02*
X171649Y464676D01*
G54D13*
X443225Y330675D02*
X440844Y330675D01*
X440844Y301306D01*
X443225Y301306D01*
G54D13*
X465450Y330675D02*
X467832Y330675D01*
X467832Y301306D01*
X465450Y301306D01*
G54D12*
X462161Y346305D02*
X460561Y344972D01*
X460027Y343638D01*
X460027Y340972D01*
G54D12*
X464294Y340972D02*
X464294Y351638D01*
X461627Y351638D01*
X460561Y350972D01*
X460027Y349638D01*
X460027Y348305D01*
X460561Y346972D01*
X461627Y346305D01*
X464294Y346305D01*
G54D12*
X456294Y347638D02*
X453627Y351638D01*
X453627Y340972D01*
G54D12*
X449894Y349638D02*
X449361Y350972D01*
X448294Y351638D01*
X447227Y351638D01*
X446161Y350972D01*
X445627Y349638D01*
X445627Y348305D01*
X446161Y346972D01*
X447227Y346305D01*
X446161Y345638D01*
X445627Y344305D01*
X445627Y342972D01*
X446161Y341638D01*
X447227Y340972D01*
X448294Y340972D01*
X449361Y341638D01*
X449894Y342972D01*
G54D14*
X462360Y317147D02*
X460137Y320480D01*
X460137Y311592D01*
G54D14*
X453471Y318814D02*
X453471Y313258D01*
X453915Y312147D01*
X454804Y311592D01*
X455693Y311592D01*
X456582Y312147D01*
X457026Y313258D01*
X457026Y318814D01*
X456582Y319925D01*
X455693Y320480D01*
X454804Y320480D01*
X453915Y319925D01*
X453471Y318814D01*
G54D14*
X450360Y311592D02*
X450360Y320480D01*
G54D14*
X449026Y314925D02*
X447693Y311592D01*
G54D14*
X450360Y313814D02*
X447693Y316592D01*
G54D13*
X186050Y310037D02*
X186050Y312418D01*
X156682Y312418D01*
X156682Y310037D01*
G54D13*
X186050Y287812D02*
X186050Y285431D01*
X156682Y285431D01*
X156682Y287812D01*
G54D12*
X181892Y323701D02*
X180292Y322368D01*
X179758Y321035D01*
X179758Y318368D01*
G54D12*
X184025Y318368D02*
X184025Y329035D01*
X181358Y329035D01*
X180292Y328368D01*
X179758Y327035D01*
X179758Y325701D01*
X180292Y324368D01*
X181358Y323701D01*
X184025Y323701D01*
G54D12*
X176025Y325035D02*
X173358Y329035D01*
X173358Y318368D01*
G54D12*
X166425Y318368D02*
X166425Y329035D01*
X169625Y322368D01*
X169625Y321035D01*
X165358Y321035D01*
G54D14*
X166649Y292300D02*
X175538Y292300D01*
X169982Y289634D01*
X168871Y289634D01*
X168871Y293189D01*
G54D14*
X166649Y296656D02*
X166649Y296300D01*
X167094Y296300D01*
X167094Y296656D01*
X166649Y296656D01*
X166649Y296300D01*
G54D14*
X175538Y299768D02*
X175538Y303323D01*
X174427Y302879D01*
X172760Y301990D01*
X170538Y301101D01*
X168871Y300656D01*
X166649Y300656D01*
G54D14*
X166649Y306434D02*
X175538Y306434D01*
G54D14*
X169982Y307768D02*
X166649Y309101D01*
G54D14*
X168871Y306434D02*
X171649Y309101D01*
G54D13*
X776600Y456087D02*
X776600Y458468D01*
X747232Y458468D01*
X747232Y456087D01*
G54D13*
X776600Y433862D02*
X776600Y431481D01*
X747232Y431481D01*
X747232Y433862D01*
G54D12*
X804827Y444351D02*
X803227Y443018D01*
X802693Y441685D01*
X802693Y439018D01*
G54D12*
X806960Y439018D02*
X806960Y449685D01*
X804293Y449685D01*
X803227Y449018D01*
X802693Y447685D01*
X802693Y446351D01*
X803227Y445018D01*
X804293Y444351D01*
X806960Y444351D01*
G54D12*
X798960Y441018D02*
X798427Y439685D01*
X797360Y439018D01*
X796293Y439018D01*
X795227Y439685D01*
X794693Y441018D01*
X794693Y444351D01*
X794693Y445018D01*
X796293Y443685D01*
X797360Y443685D01*
X798427Y444351D01*
X798960Y445685D01*
X798960Y447685D01*
X798427Y449018D01*
X797360Y449685D01*
X796293Y449685D01*
X795227Y449018D01*
X794693Y447685D01*
X794693Y444351D01*
G54D14*
X763072Y441081D02*
X766405Y443303D01*
X757516Y443303D01*
G54D14*
X757516Y446414D02*
X766405Y446414D01*
G54D14*
X760850Y447747D02*
X757516Y449081D01*
G54D14*
X759739Y446414D02*
X762516Y449081D01*
G54D13*
X787712Y387825D02*
X790094Y387825D01*
X790094Y417194D01*
X787712Y417194D01*
G54D13*
X765487Y387825D02*
X763106Y387825D01*
X763106Y417194D01*
X765487Y417194D01*
G54D12*
X800106Y395793D02*
X798773Y397393D01*
X797440Y397927D01*
X794773Y397927D01*
G54D12*
X794773Y393660D02*
X805440Y393660D01*
X805440Y396327D01*
X804773Y397393D01*
X803440Y397927D01*
X802106Y397927D01*
X800773Y397393D01*
X800106Y396327D01*
X800106Y393660D01*
G54D12*
X801440Y401660D02*
X805440Y404327D01*
X794773Y404327D01*
G54D12*
X803440Y412327D02*
X796773Y412327D01*
X795440Y411793D01*
X794773Y410727D01*
X794773Y409660D01*
X795440Y408593D01*
X796773Y408060D01*
X803440Y408060D01*
X804773Y408593D01*
X805440Y409660D01*
X805440Y410727D01*
X804773Y411793D01*
X803440Y412327D01*
G54D14*
X783296Y403576D02*
X781074Y406909D01*
X781074Y398020D01*
G54D14*
X774407Y405242D02*
X774407Y399687D01*
X774852Y398576D01*
X775741Y398020D01*
X776630Y398020D01*
X777519Y398576D01*
X777963Y399687D01*
X777963Y405242D01*
X777519Y406353D01*
X776630Y406909D01*
X775741Y406909D01*
X774852Y406353D01*
X774407Y405242D01*
G54D14*
X771296Y398020D02*
X771296Y406909D01*
G54D14*
X769963Y401353D02*
X768629Y398020D01*
G54D14*
X771296Y400242D02*
X768629Y403020D01*
G54D13*
X573400Y156050D02*
X575781Y156050D01*
X575781Y185418D01*
X573400Y185418D01*
G54D13*
X551175Y156050D02*
X548794Y156050D01*
X548794Y185418D01*
X551175Y185418D01*
G54D12*
X568894Y202235D02*
X567294Y200902D01*
X566760Y199569D01*
X566760Y196902D01*
G54D12*
X571027Y196902D02*
X571027Y207569D01*
X568360Y207569D01*
X567294Y206902D01*
X566760Y205569D01*
X566760Y204235D01*
X567294Y202902D01*
X568360Y202235D01*
X571027Y202235D01*
G54D12*
X563027Y203569D02*
X560360Y207569D01*
X560360Y196902D01*
G54D12*
X556627Y203569D02*
X553960Y207569D01*
X553960Y196902D01*
G54D14*
X568984Y171801D02*
X566761Y175134D01*
X566761Y166245D01*
G54D14*
X560095Y173467D02*
X560095Y167912D01*
X560539Y166801D01*
X561428Y166245D01*
X562317Y166245D01*
X563206Y166801D01*
X563650Y167912D01*
X563650Y173467D01*
X563206Y174578D01*
X562317Y175134D01*
X561428Y175134D01*
X560539Y174578D01*
X560095Y173467D01*
G54D14*
X556984Y166245D02*
X556984Y175134D01*
G54D14*
X555650Y169578D02*
X554317Y166245D01*
G54D14*
X556984Y168467D02*
X554317Y171245D01*
G54D13*
X186050Y151287D02*
X186050Y153668D01*
X156682Y153668D01*
X156682Y151287D01*
G54D13*
X186050Y129062D02*
X186050Y126681D01*
X156682Y126681D01*
X156682Y129062D01*
G54D12*
X181892Y164951D02*
X180292Y163618D01*
X179758Y162285D01*
X179758Y159618D01*
G54D12*
X184025Y159618D02*
X184025Y170285D01*
X181358Y170285D01*
X180292Y169618D01*
X179758Y168285D01*
X179758Y166951D01*
X180292Y165618D01*
X181358Y164951D01*
X184025Y164951D01*
G54D12*
X176025Y166285D02*
X173358Y170285D01*
X173358Y159618D01*
G54D12*
X165358Y159618D02*
X169625Y159618D01*
X169625Y160285D01*
X169092Y161618D01*
X165892Y165618D01*
X165358Y166951D01*
X165358Y168285D01*
X165892Y169618D01*
X166958Y170285D01*
X168025Y170285D01*
X169092Y169618D01*
X169625Y168285D01*
G54D14*
X166649Y133550D02*
X175538Y133550D01*
X169982Y130884D01*
X168871Y130884D01*
X168871Y134439D01*
G54D14*
X166649Y137906D02*
X166649Y137550D01*
X167094Y137550D01*
X167094Y137906D01*
X166649Y137906D01*
X166649Y137550D01*
G54D14*
X175538Y141018D02*
X175538Y144573D01*
X174427Y144129D01*
X172760Y143240D01*
X170538Y142351D01*
X168871Y141906D01*
X166649Y141906D01*
G54D14*
X166649Y147684D02*
X175538Y147684D01*
G54D14*
X169982Y149018D02*
X166649Y150351D01*
G54D14*
X168871Y147684D02*
X171649Y150351D01*
G54D13*
X1278250Y538637D02*
X1278250Y541018D01*
X1248882Y541018D01*
X1248882Y538637D01*
G54D13*
X1278250Y516412D02*
X1278250Y514031D01*
X1248882Y514031D01*
X1248882Y516412D01*
G54D12*
X1309017Y526901D02*
X1307417Y525568D01*
X1306883Y524235D01*
X1306883Y521568D01*
G54D12*
X1311150Y521568D02*
X1311150Y532235D01*
X1308483Y532235D01*
X1307417Y531568D01*
X1306883Y530235D01*
X1306883Y528901D01*
X1307417Y527568D01*
X1308483Y526901D01*
X1311150Y526901D01*
G54D12*
X1303150Y528235D02*
X1300483Y532235D01*
X1300483Y521568D01*
G54D12*
X1296750Y523568D02*
X1296217Y522235D01*
X1295150Y521568D01*
X1294083Y521568D01*
X1293017Y522235D01*
X1292483Y523568D01*
X1292483Y526901D01*
X1292483Y527568D01*
X1294083Y526235D01*
X1295150Y526235D01*
X1296217Y526901D01*
X1296750Y528235D01*
X1296750Y530235D01*
X1296217Y531568D01*
X1295150Y532235D01*
X1294083Y532235D01*
X1293017Y531568D01*
X1292483Y530235D01*
X1292483Y526901D01*
G54D14*
X1258849Y520900D02*
X1267738Y520900D01*
X1262182Y518234D01*
X1261071Y518234D01*
X1261071Y521789D01*
G54D14*
X1258849Y525256D02*
X1258849Y524900D01*
X1259294Y524900D01*
X1259294Y525256D01*
X1258849Y525256D01*
X1258849Y524900D01*
G54D14*
X1267738Y528368D02*
X1267738Y531923D01*
X1266627Y531479D01*
X1264960Y530590D01*
X1262738Y529701D01*
X1261071Y529256D01*
X1258849Y529256D01*
G54D14*
X1258849Y535034D02*
X1267738Y535034D01*
G54D14*
X1262182Y536368D02*
X1258849Y537701D01*
G54D14*
X1261071Y535034D02*
X1263849Y537701D01*
G54D13*
X1249675Y303687D02*
X1249675Y306068D01*
X1220306Y306068D01*
X1220306Y303687D01*
G54D13*
X1249675Y281462D02*
X1249675Y279081D01*
X1220306Y279081D01*
X1220306Y281462D01*
G54D12*
X1205829Y293539D02*
X1204229Y292206D01*
X1203696Y290872D01*
X1203696Y288206D01*
G54D12*
X1207962Y288206D02*
X1207962Y298872D01*
X1205296Y298872D01*
X1204229Y298206D01*
X1203696Y296872D01*
X1203696Y295539D01*
X1204229Y294206D01*
X1205296Y293539D01*
X1207962Y293539D01*
G54D12*
X1195696Y288206D02*
X1199962Y288206D01*
X1199962Y288872D01*
X1199429Y290206D01*
X1196229Y294206D01*
X1195696Y295539D01*
X1195696Y296872D01*
X1196229Y298206D01*
X1197296Y298872D01*
X1198362Y298872D01*
X1199429Y298206D01*
X1199962Y296872D01*
G54D12*
X1187696Y296872D02*
X1187696Y290206D01*
X1188229Y288872D01*
X1189296Y288206D01*
X1190362Y288206D01*
X1191429Y288872D01*
X1191962Y290206D01*
X1191962Y296872D01*
X1191429Y298206D01*
X1190362Y298872D01*
X1189296Y298872D01*
X1188229Y298206D01*
X1187696Y296872D01*
G54D14*
X1236147Y284554D02*
X1239480Y286776D01*
X1230592Y286776D01*
G54D14*
X1237814Y293442D02*
X1232258Y293442D01*
X1231147Y292998D01*
X1230592Y292109D01*
X1230592Y291220D01*
X1231147Y290331D01*
X1232258Y289886D01*
X1237814Y289886D01*
X1238925Y290331D01*
X1239480Y291220D01*
X1239480Y292109D01*
X1238925Y292998D01*
X1237814Y293442D01*
G54D14*
X1230592Y296554D02*
X1239480Y296554D01*
G54D14*
X1233925Y297887D02*
X1230592Y299220D01*
G54D14*
X1232814Y296554D02*
X1235592Y299220D01*
G54D13*
X1249675Y275112D02*
X1249675Y277494D01*
X1220306Y277494D01*
X1220306Y275112D01*
G54D13*
X1249675Y252887D02*
X1249675Y250506D01*
X1220306Y250506D01*
X1220306Y252887D01*
G54D12*
X1205670Y263376D02*
X1204070Y262043D01*
X1203537Y260710D01*
X1203537Y258043D01*
G54D12*
X1207804Y258043D02*
X1207804Y268710D01*
X1205137Y268710D01*
X1204070Y268043D01*
X1203537Y266710D01*
X1203537Y265376D01*
X1204070Y264043D01*
X1205137Y263376D01*
X1207804Y263376D01*
G54D12*
X1195537Y258043D02*
X1199804Y258043D01*
X1199804Y258710D01*
X1199270Y260043D01*
X1196070Y264043D01*
X1195537Y265376D01*
X1195537Y266710D01*
X1196070Y268043D01*
X1197137Y268710D01*
X1198204Y268710D01*
X1199270Y268043D01*
X1199804Y266710D01*
G54D12*
X1191804Y264710D02*
X1189137Y268710D01*
X1189137Y258043D01*
G54D14*
X1236147Y255978D02*
X1239480Y258201D01*
X1230592Y258201D01*
G54D14*
X1237814Y264867D02*
X1232258Y264867D01*
X1231147Y264423D01*
X1230592Y263534D01*
X1230592Y262645D01*
X1231147Y261756D01*
X1232258Y261312D01*
X1237814Y261312D01*
X1238925Y261756D01*
X1239480Y262645D01*
X1239480Y263534D01*
X1238925Y264423D01*
X1237814Y264867D01*
G54D14*
X1230592Y267978D02*
X1239480Y267978D01*
G54D14*
X1233925Y269312D02*
X1230592Y270645D01*
G54D14*
X1232814Y267978D02*
X1235592Y270645D01*
G54D13*
X1249675Y402112D02*
X1249675Y404494D01*
X1220306Y404494D01*
X1220306Y402112D01*
G54D13*
X1249675Y379887D02*
X1249675Y377506D01*
X1220306Y377506D01*
X1220306Y379887D01*
G54D12*
X1245517Y415776D02*
X1243917Y414443D01*
X1243383Y413110D01*
X1243383Y410443D01*
G54D12*
X1247650Y410443D02*
X1247650Y421110D01*
X1244983Y421110D01*
X1243917Y420443D01*
X1243383Y419110D01*
X1243383Y417776D01*
X1243917Y416443D01*
X1244983Y415776D01*
X1247650Y415776D01*
G54D12*
X1235383Y410443D02*
X1239650Y410443D01*
X1239650Y411110D01*
X1239117Y412443D01*
X1235917Y416443D01*
X1235383Y417776D01*
X1235383Y419110D01*
X1235917Y420443D01*
X1236983Y421110D01*
X1238050Y421110D01*
X1239117Y420443D01*
X1239650Y419110D01*
G54D12*
X1227383Y410443D02*
X1231650Y410443D01*
X1231650Y411110D01*
X1231117Y412443D01*
X1227917Y416443D01*
X1227383Y417776D01*
X1227383Y419110D01*
X1227917Y420443D01*
X1228983Y421110D01*
X1230050Y421110D01*
X1231117Y420443D01*
X1231650Y419110D01*
G54D14*
X1236147Y382978D02*
X1239480Y385201D01*
X1230592Y385201D01*
G54D14*
X1237814Y391867D02*
X1232258Y391867D01*
X1231147Y391423D01*
X1230592Y390534D01*
X1230592Y389645D01*
X1231147Y388756D01*
X1232258Y388312D01*
X1237814Y388312D01*
X1238925Y388756D01*
X1239480Y389645D01*
X1239480Y390534D01*
X1238925Y391423D01*
X1237814Y391867D01*
G54D14*
X1230592Y394978D02*
X1239480Y394978D01*
G54D14*
X1233925Y396312D02*
X1230592Y397645D01*
G54D14*
X1232814Y394978D02*
X1235592Y397645D01*
G54D13*
X816287Y527525D02*
X818668Y527525D01*
X818668Y556894D01*
X816287Y556894D01*
G54D13*
X794062Y527525D02*
X791681Y527525D01*
X791681Y556894D01*
X794062Y556894D01*
G54D12*
X814139Y573021D02*
X812539Y571688D01*
X812006Y570354D01*
X812006Y567688D01*
G54D12*
X816272Y567688D02*
X816272Y578354D01*
X813606Y578354D01*
X812539Y577688D01*
X812006Y576354D01*
X812006Y575021D01*
X812539Y573688D01*
X813606Y573021D01*
X816272Y573021D01*
G54D12*
X804006Y567688D02*
X808272Y567688D01*
X808272Y568354D01*
X807739Y569688D01*
X804539Y573688D01*
X804006Y575021D01*
X804006Y576354D01*
X804539Y577688D01*
X805606Y578354D01*
X806672Y578354D01*
X807739Y577688D01*
X808272Y576354D01*
G54D12*
X800272Y576354D02*
X799739Y577688D01*
X798672Y578354D01*
X797606Y578354D01*
X796539Y577688D01*
X796006Y576354D01*
X796006Y575021D01*
X796539Y573688D01*
X797606Y573021D01*
X796539Y572354D01*
X796006Y571021D01*
X796006Y569688D01*
X796539Y568354D01*
X797606Y567688D01*
X798672Y567688D01*
X799739Y568354D01*
X800272Y569688D01*
G54D14*
X812652Y538037D02*
X812652Y546926D01*
X815319Y541370D01*
X815319Y540259D01*
X811763Y540259D01*
G54D14*
X808296Y538037D02*
X808652Y538037D01*
X808652Y538481D01*
X808296Y538481D01*
X808296Y538037D01*
X808652Y538037D01*
G54D14*
X805185Y546926D02*
X801629Y546926D01*
X802074Y545815D01*
X802963Y544148D01*
X803852Y541926D01*
X804296Y540259D01*
X804296Y538037D01*
G54D14*
X798518Y538037D02*
X798518Y546926D01*
G54D14*
X797185Y541370D02*
X795851Y538037D01*
G54D14*
X798518Y540259D02*
X795851Y543037D01*
G54D10*
X382900Y289400D02*
X382900Y308450D01*
G54D10*
X379725Y286225D02*
X382900Y289400D01*
G54D10*
X379725Y286225D02*
X360675Y286225D01*
G54D10*
X379725Y311625D02*
X360675Y311625D01*
G54D10*
X357500Y308450D02*
X357500Y289400D01*
G54D10*
X360675Y286225D02*
X357500Y289400D01*
G54D10*
X357500Y308450D02*
X360675Y311625D01*
G54D10*
X379725Y311625D02*
X382900Y308450D01*
G54D10*
X382900Y314800D02*
X382900Y333850D01*
G54D10*
X379725Y311625D02*
X382900Y314800D01*
G54D10*
X379725Y311625D02*
X360675Y311625D01*
G54D10*
X379725Y337025D02*
X360675Y337025D01*
G54D10*
X357500Y333850D02*
X357500Y314800D01*
G54D10*
X360675Y311625D02*
X357500Y314800D01*
G54D10*
X357500Y333850D02*
X360675Y337025D01*
G54D10*
X379725Y337025D02*
X382900Y333850D01*
G54D10*
X357500Y289400D02*
X357500Y308450D01*
G54D10*
X354325Y286225D02*
X357500Y289400D01*
G54D10*
X354325Y286225D02*
X335275Y286225D01*
G54D10*
X354325Y311625D02*
X335275Y311625D01*
G54D10*
X332100Y308450D02*
X332100Y289400D01*
G54D10*
X335275Y286225D02*
X332100Y289400D01*
G54D10*
X332100Y308450D02*
X335275Y311625D01*
G54D10*
X354325Y311625D02*
X357500Y308450D01*
G54D10*
X357500Y314800D02*
X357500Y333850D01*
G54D10*
X354325Y311625D02*
X357500Y314800D01*
G54D10*
X354325Y311625D02*
X335275Y311625D01*
G54D10*
X354325Y337025D02*
X335275Y337025D01*
G54D10*
X332100Y333850D02*
X332100Y314800D01*
G54D10*
X335275Y311625D02*
X332100Y314800D01*
G54D10*
X332100Y333850D02*
X335275Y337025D01*
G54D10*
X354325Y337025D02*
X357500Y333850D01*
G54D10*
X332100Y289400D02*
X332100Y308450D01*
G54D10*
X328925Y286225D02*
X332100Y289400D01*
G54D10*
X328925Y286225D02*
X309875Y286225D01*
G54D10*
X328925Y311625D02*
X309875Y311625D01*
G54D10*
X306700Y308450D02*
X306700Y289400D01*
G54D10*
X309875Y286225D02*
X306700Y289400D01*
G54D10*
X306700Y308450D02*
X309875Y311625D01*
G54D10*
X328925Y311625D02*
X332100Y308450D01*
G54D10*
X332100Y314800D02*
X332100Y333850D01*
G54D10*
X328925Y311625D02*
X332100Y314800D01*
G54D10*
X328925Y311625D02*
X309875Y311625D01*
G54D10*
X328925Y337025D02*
X309875Y337025D01*
G54D10*
X306700Y333850D02*
X306700Y314800D01*
G54D10*
X309875Y311625D02*
X306700Y314800D01*
G54D10*
X306700Y333850D02*
X309875Y337025D01*
G54D10*
X328925Y337025D02*
X332100Y333850D01*
G54D14*
X376336Y272900D02*
X376336Y281788D01*
X374114Y276233D01*
X371892Y281788D01*
X371892Y272900D01*
G54D14*
X368781Y272900D02*
X365226Y272900D01*
G54D14*
X367003Y272900D02*
X367003Y281788D01*
G54D14*
X368781Y281788D02*
X365226Y281788D01*
G54D14*
X336714Y280224D02*
X337158Y281335D01*
X338047Y281890D01*
X338936Y281890D01*
X339825Y281335D01*
X340270Y280224D01*
X340270Y279113D01*
X339825Y278002D01*
X338936Y277446D01*
X338047Y277446D01*
X337158Y276890D01*
X336714Y275779D01*
X336714Y274668D01*
X337158Y273557D01*
X338047Y273002D01*
X338936Y273002D01*
X339825Y273557D01*
X340270Y274668D01*
G54D14*
X346936Y280224D02*
X346492Y281335D01*
X345603Y281890D01*
X344714Y281890D01*
X343826Y281335D01*
X343381Y280224D01*
X343381Y274668D01*
X343826Y273557D01*
X344714Y273002D01*
X345603Y273002D01*
X346492Y273557D01*
X346936Y274668D01*
G54D14*
X350048Y281890D02*
X350048Y273002D01*
G54D14*
X350048Y279113D02*
X353604Y273002D01*
G54D14*
X351381Y277446D02*
X353604Y281890D01*
G54D14*
X330836Y273102D02*
X327280Y281991D01*
G54D14*
X322391Y277546D02*
X321058Y276435D01*
X320614Y275324D01*
X320614Y273102D01*
G54D14*
X324169Y273102D02*
X324169Y281991D01*
X321947Y281991D01*
X321058Y281435D01*
X320614Y280324D01*
X320614Y279213D01*
X321058Y278102D01*
X321947Y277546D01*
X324169Y277546D01*
G54D14*
X317502Y274769D02*
X317058Y273658D01*
X316169Y273102D01*
X315280Y273102D01*
X314391Y273658D01*
X313946Y274769D01*
X313946Y275880D01*
X314391Y276991D01*
X315280Y277546D01*
X316169Y277546D01*
X317058Y278102D01*
X317502Y279213D01*
X317502Y280324D01*
X317058Y281435D01*
X316169Y281991D01*
X315280Y281991D01*
X314391Y281435D01*
X313946Y280324D01*
G54D14*
X309057Y273102D02*
X309057Y281991D01*
G54D14*
X310835Y281991D02*
X307280Y281991D01*
G54D14*
X379418Y349982D02*
X377196Y341094D01*
X374974Y349982D01*
G54D14*
X370085Y341094D02*
X370085Y349982D01*
G54D14*
X371863Y349982D02*
X368308Y349982D01*
G54D14*
X363418Y345538D02*
X361640Y345538D01*
X361640Y342760D01*
X362085Y341649D01*
X362974Y341094D01*
X363863Y341094D01*
X364752Y341649D01*
X365196Y342760D01*
X365196Y348316D01*
X364752Y349427D01*
X363863Y349982D01*
X362974Y349982D01*
X362085Y349427D01*
X361640Y348316D01*
G54D14*
X350989Y340614D02*
X350989Y349503D01*
X348767Y343947D01*
X346544Y349503D01*
X346544Y340614D01*
G54D14*
X339878Y347836D02*
X339878Y342281D01*
X340323Y341170D01*
X341212Y340614D01*
X342101Y340614D01*
X342990Y341170D01*
X343434Y342281D01*
X343434Y347836D01*
X342990Y348947D01*
X342101Y349503D01*
X341212Y349503D01*
X340323Y348947D01*
X339878Y347836D01*
G54D14*
X326067Y345407D02*
X324289Y345407D01*
X324289Y342629D01*
X324733Y341518D01*
X325622Y340962D01*
X326511Y340962D01*
X327400Y341518D01*
X327844Y342629D01*
X327844Y348185D01*
X327400Y349296D01*
X326511Y349851D01*
X325622Y349851D01*
X324733Y349296D01*
X324289Y348185D01*
G54D14*
X321178Y340962D02*
X321178Y349851D01*
X317622Y340962D01*
X317622Y349851D01*
G54D14*
X314510Y340962D02*
X314510Y349851D01*
X312288Y349851D01*
X311399Y349296D01*
X310955Y348185D01*
X310955Y342629D01*
X311399Y341518D01*
X312288Y340962D01*
X314510Y340962D01*
G54D12*
X411000Y316944D02*
X405667Y306277D01*
G54D12*
X411000Y306277D02*
X405667Y316944D01*
G54D12*
X399801Y306277D02*
X399801Y316944D01*
G54D12*
X401934Y316944D02*
X397667Y316944D01*
G54D12*
X389667Y316944D02*
X393934Y316944D01*
X393934Y312277D01*
X393401Y312277D01*
X392334Y312944D01*
X391267Y312944D01*
X390201Y312277D01*
X389667Y310944D01*
X389667Y308277D01*
X390201Y306944D01*
X391267Y306277D01*
X392334Y306277D01*
X393401Y306944D01*
X393934Y308277D01*
G54D13*
X332100Y518000D02*
X332100Y587850D01*
X284475Y587850D01*
X284475Y518000D01*
G54D13*
X332100Y518000D02*
X284475Y518000D01*
G36*
X284475Y518000D02*
X281300Y518000D01*
X281300Y521175D01*
X284475Y521175D01*
X284475Y518000D01*
G37*
G54D13*
X284475Y518000D02*
X281300Y518000D01*
X281300Y521175D01*
X284475Y521175D01*
X284475Y518000D01*
G36*
X284475Y584675D02*
X281300Y584675D01*
X281300Y587850D01*
X284475Y587850D01*
X284475Y584675D01*
G37*
G54D13*
X284475Y584675D02*
X281300Y584675D01*
X281300Y587850D01*
X284475Y587850D01*
X284475Y584675D01*
G54D12*
X345060Y552432D02*
X343460Y551098D01*
X342927Y549765D01*
X342927Y547098D01*
G54D12*
X347194Y547098D02*
X347194Y557765D01*
X344527Y557765D01*
X343460Y557098D01*
X342927Y555765D01*
X342927Y554432D01*
X343460Y553098D01*
X344527Y552432D01*
X347194Y552432D01*
G54D12*
X339194Y553765D02*
X336527Y557765D01*
X336527Y547098D01*
G54D12*
X325130Y521762D02*
X329130Y524429D01*
X318463Y524429D01*
G54D12*
X327130Y532429D02*
X320463Y532429D01*
X319130Y531896D01*
X318463Y530829D01*
X318463Y529762D01*
X319130Y528696D01*
X320463Y528162D01*
X327130Y528162D01*
X328463Y528696D01*
X329130Y529762D01*
X329130Y530829D01*
X328463Y531896D01*
X327130Y532429D01*
G54D12*
X318463Y536162D02*
X329130Y536162D01*
G54D12*
X322463Y537762D02*
X318463Y539362D01*
G54D12*
X321130Y536162D02*
X324463Y539362D01*
G54D13*
X433700Y156050D02*
X433700Y152875D01*
X386075Y152875D01*
X386075Y156050D01*
G54D13*
X433700Y181450D02*
X433700Y184625D01*
X386075Y184625D01*
X386075Y181450D01*
G54D13*
X416872Y159225D02*
X416872Y178275D01*
G54D13*
X416872Y168750D02*
X404172Y159225D01*
X404172Y178275D01*
X416872Y168750D01*
G54D12*
X373976Y184614D02*
X371310Y173947D01*
X368643Y184614D01*
G54D12*
X364910Y173947D02*
X364910Y184614D01*
X362244Y184614D01*
X361177Y183947D01*
X360644Y182614D01*
X360644Y175947D01*
X361177Y174614D01*
X362244Y173947D01*
X364910Y173947D01*
G54D12*
X356910Y180614D02*
X354244Y184614D01*
X354244Y173947D01*
G54D12*
X373717Y158762D02*
X373184Y157429D01*
X372117Y156762D01*
X371050Y156762D01*
X369984Y157429D01*
X369450Y158762D01*
X369450Y160096D01*
X369984Y161429D01*
X371050Y162096D01*
X372117Y162096D01*
X373184Y162762D01*
X373717Y164096D01*
X373717Y165429D01*
X373184Y166762D01*
X372117Y167429D01*
X371050Y167429D01*
X369984Y166762D01*
X369450Y165429D01*
G54D12*
X365717Y158762D02*
X365184Y157429D01*
X364117Y156762D01*
X363050Y156762D01*
X361984Y157429D01*
X361450Y158762D01*
X361450Y160096D01*
X361984Y161429D01*
X363050Y162096D01*
X364117Y162096D01*
X365184Y162762D01*
X365717Y164096D01*
X365717Y165429D01*
X365184Y166762D01*
X364117Y167429D01*
X363050Y167429D01*
X361984Y166762D01*
X361450Y165429D01*
G54D12*
X357717Y163429D02*
X355050Y167429D01*
X355050Y156762D01*
G54D12*
X347050Y156762D02*
X351317Y156762D01*
X351317Y157429D01*
X350784Y158762D01*
X347584Y162762D01*
X347050Y164096D01*
X347050Y165429D01*
X347584Y166762D01*
X348650Y167429D01*
X349717Y167429D01*
X350784Y166762D01*
X351317Y165429D01*
G54D13*
X433700Y192562D02*
X433700Y189388D01*
X386075Y189388D01*
X386075Y192562D01*
G54D13*
X433700Y217962D02*
X433700Y221138D01*
X386075Y221138D01*
X386075Y217962D01*
G54D13*
X416872Y195738D02*
X416872Y214788D01*
G54D13*
X416872Y205262D02*
X404172Y195738D01*
X404172Y214788D01*
X416872Y205262D01*
G54D12*
X376364Y215577D02*
X373697Y204910D01*
X371031Y215577D01*
G54D12*
X367298Y204910D02*
X367298Y215577D01*
X364631Y215577D01*
X363565Y214910D01*
X363031Y213577D01*
X363031Y206910D01*
X363565Y205577D01*
X364631Y204910D01*
X367298Y204910D01*
G54D12*
X355031Y204910D02*
X359298Y204910D01*
X359298Y205577D01*
X358765Y206910D01*
X355565Y210910D01*
X355031Y212243D01*
X355031Y213577D01*
X355565Y214910D01*
X356631Y215577D01*
X357698Y215577D01*
X358765Y214910D01*
X359298Y213577D01*
G54D12*
X375304Y192100D02*
X374771Y190767D01*
X373704Y190100D01*
X372638Y190100D01*
X371571Y190767D01*
X371038Y192100D01*
X371038Y193434D01*
X371571Y194767D01*
X372638Y195434D01*
X373704Y195434D01*
X374771Y196100D01*
X375304Y197434D01*
X375304Y198767D01*
X374771Y200100D01*
X373704Y200767D01*
X372638Y200767D01*
X371571Y200100D01*
X371038Y198767D01*
G54D12*
X367304Y192100D02*
X366771Y190767D01*
X365704Y190100D01*
X364638Y190100D01*
X363571Y190767D01*
X363038Y192100D01*
X363038Y193434D01*
X363571Y194767D01*
X364638Y195434D01*
X365704Y195434D01*
X366771Y196100D01*
X367304Y197434D01*
X367304Y198767D01*
X366771Y200100D01*
X365704Y200767D01*
X364638Y200767D01*
X363571Y200100D01*
X363038Y198767D01*
G54D12*
X359304Y196767D02*
X356638Y200767D01*
X356638Y190100D01*
G54D12*
X348638Y190100D02*
X352904Y190100D01*
X352904Y190767D01*
X352371Y192100D01*
X349171Y196100D01*
X348638Y197434D01*
X348638Y198767D01*
X349171Y200100D01*
X350238Y200767D01*
X351304Y200767D01*
X352371Y200100D01*
X352904Y198767D01*
G54D10*
X698762Y604456D02*
X698762Y612394D01*
X734531Y612394D01*
X734531Y604456D01*
X698762Y604456D01*
G54D10*
X723369Y612456D02*
X723369Y626744D01*
X709081Y626744D01*
X709081Y612456D01*
G54D10*
X732894Y603725D02*
X732894Y590231D01*
X718606Y590231D01*
X718606Y603725D01*
G54D10*
X713844Y603725D02*
X713844Y590231D01*
X699556Y590231D01*
X699556Y603725D01*
G54D12*
X774513Y620552D02*
X771846Y609885D01*
X769180Y620552D01*
G54D12*
X763314Y609885D02*
X763314Y620552D01*
G54D12*
X765447Y620552D02*
X761180Y620552D01*
G54D12*
X757447Y616552D02*
X754780Y620552D01*
X754780Y609885D01*
G54D12*
X774392Y595097D02*
X774392Y605764D01*
X771725Y605764D01*
X770658Y605097D01*
X770125Y603764D01*
X770125Y602430D01*
X770658Y601097D01*
X771725Y600430D01*
X770658Y599764D01*
X770125Y598430D01*
X770125Y597097D01*
X770658Y595764D01*
X771725Y595097D01*
X774392Y595097D01*
G54D12*
X774392Y600430D02*
X771725Y600430D01*
G54D12*
X762125Y597097D02*
X762658Y595764D01*
X763725Y595097D01*
X764792Y595097D01*
X765858Y595764D01*
X766392Y597097D01*
X766392Y603764D01*
X765858Y605097D01*
X764792Y605764D01*
X763725Y605764D01*
X762658Y605097D01*
X762125Y603764D01*
G54D12*
X755725Y600430D02*
X756792Y600430D01*
X757858Y601097D01*
X758392Y602430D01*
X758392Y603764D01*
X757858Y605097D01*
X756792Y605764D01*
X755725Y605764D01*
X754658Y605097D01*
X754125Y603764D01*
X754125Y602430D01*
X754658Y601097D01*
X755725Y600430D01*
X754658Y599764D01*
X754125Y598430D01*
X754125Y597097D01*
X754658Y595764D01*
X755725Y595097D01*
X756792Y595097D01*
X757858Y595764D01*
X758392Y597097D01*
X758392Y598430D01*
X757858Y599764D01*
X756792Y600430D01*
G54D12*
X750392Y601764D02*
X747725Y605764D01*
X747725Y595097D01*
G54D12*
X743992Y605764D02*
X739725Y605764D01*
X740258Y604430D01*
X741325Y602430D01*
X742392Y599764D01*
X742925Y597764D01*
X742925Y595097D01*
G54D10*
X85988Y461581D02*
X85988Y469519D01*
X121756Y469519D01*
X121756Y461581D01*
X85988Y461581D01*
G54D10*
X110594Y469581D02*
X110594Y483869D01*
X96306Y483869D01*
X96306Y469581D01*
G54D10*
X120119Y460850D02*
X120119Y447356D01*
X105831Y447356D01*
X105831Y460850D01*
G54D10*
X101069Y460850D02*
X101069Y447356D01*
X86781Y447356D01*
X86781Y460850D01*
G54D12*
X78065Y478495D02*
X75398Y467828D01*
X72732Y478495D01*
G54D12*
X66866Y467828D02*
X66866Y478495D01*
G54D12*
X68999Y478495D02*
X64732Y478495D01*
G54D12*
X56732Y476495D02*
X57266Y477828D01*
X58332Y478495D01*
X59399Y478495D01*
X60466Y477828D01*
X60999Y476495D01*
X60999Y473161D01*
X60999Y472495D01*
X59399Y473828D01*
X58332Y473828D01*
X57266Y473161D01*
X56732Y471828D01*
X56732Y469828D01*
X57266Y468495D01*
X58332Y467828D01*
X59399Y467828D01*
X60466Y468495D01*
X60999Y469828D01*
X60999Y473161D01*
G54D12*
X77796Y452222D02*
X77796Y462889D01*
X75130Y462889D01*
X74063Y462222D01*
X73530Y460889D01*
X73530Y459555D01*
X74063Y458222D01*
X75130Y457555D01*
X74063Y456889D01*
X73530Y455555D01*
X73530Y454222D01*
X74063Y452889D01*
X75130Y452222D01*
X77796Y452222D01*
G54D12*
X77796Y457555D02*
X75130Y457555D01*
G54D12*
X65530Y454222D02*
X66063Y452889D01*
X67130Y452222D01*
X68196Y452222D01*
X69263Y452889D01*
X69796Y454222D01*
X69796Y460889D01*
X69263Y462222D01*
X68196Y462889D01*
X67130Y462889D01*
X66063Y462222D01*
X65530Y460889D01*
G54D12*
X59130Y457555D02*
X60196Y457555D01*
X61263Y458222D01*
X61796Y459555D01*
X61796Y460889D01*
X61263Y462222D01*
X60196Y462889D01*
X59130Y462889D01*
X58063Y462222D01*
X57530Y460889D01*
X57530Y459555D01*
X58063Y458222D01*
X59130Y457555D01*
X58063Y456889D01*
X57530Y455555D01*
X57530Y454222D01*
X58063Y452889D01*
X59130Y452222D01*
X60196Y452222D01*
X61263Y452889D01*
X61796Y454222D01*
X61796Y455555D01*
X61263Y456889D01*
X60196Y457555D01*
G54D12*
X53796Y458889D02*
X51130Y462889D01*
X51130Y452222D01*
G54D12*
X47396Y462889D02*
X43130Y462889D01*
X43663Y461555D01*
X44730Y459555D01*
X45796Y456889D01*
X46330Y454889D01*
X46330Y452222D01*
G54D10*
X740944Y290938D02*
X733006Y290938D01*
X733006Y326706D01*
X740944Y326706D01*
X740944Y290938D01*
G54D10*
X732944Y315544D02*
X718656Y315544D01*
X718656Y301256D01*
X732944Y301256D01*
G54D10*
X741675Y325069D02*
X755169Y325069D01*
X755169Y310781D01*
X741675Y310781D01*
G54D10*
X741675Y306019D02*
X755169Y306019D01*
X755169Y291731D01*
X741675Y291731D01*
G54D12*
X711787Y321165D02*
X709120Y310498D01*
X706454Y321165D01*
G54D12*
X700588Y310498D02*
X700588Y321165D01*
G54D12*
X702721Y321165D02*
X698454Y321165D01*
G54D12*
X690454Y321165D02*
X694721Y321165D01*
X694721Y316498D01*
X694188Y316498D01*
X693121Y317165D01*
X692054Y317165D01*
X690988Y316498D01*
X690454Y315165D01*
X690454Y312498D01*
X690988Y311165D01*
X692054Y310498D01*
X693121Y310498D01*
X694188Y311165D01*
X694721Y312498D01*
G54D12*
X711470Y295356D02*
X711470Y306022D01*
X708803Y306022D01*
X707736Y305356D01*
X707203Y304022D01*
X707203Y302689D01*
X707736Y301356D01*
X708803Y300689D01*
X707736Y300022D01*
X707203Y298689D01*
X707203Y297356D01*
X707736Y296022D01*
X708803Y295356D01*
X711470Y295356D01*
G54D12*
X711470Y300689D02*
X708803Y300689D01*
G54D12*
X699203Y297356D02*
X699736Y296022D01*
X700803Y295356D01*
X701870Y295356D01*
X702936Y296022D01*
X703470Y297356D01*
X703470Y304022D01*
X702936Y305356D01*
X701870Y306022D01*
X700803Y306022D01*
X699736Y305356D01*
X699203Y304022D01*
G54D12*
X692803Y300689D02*
X693870Y300689D01*
X694936Y301356D01*
X695470Y302689D01*
X695470Y304022D01*
X694936Y305356D01*
X693870Y306022D01*
X692803Y306022D01*
X691736Y305356D01*
X691203Y304022D01*
X691203Y302689D01*
X691736Y301356D01*
X692803Y300689D01*
X691736Y300022D01*
X691203Y298689D01*
X691203Y297356D01*
X691736Y296022D01*
X692803Y295356D01*
X693870Y295356D01*
X694936Y296022D01*
X695470Y297356D01*
X695470Y298689D01*
X694936Y300022D01*
X693870Y300689D01*
G54D12*
X684270Y295356D02*
X684270Y306022D01*
X687470Y299356D01*
X687470Y298022D01*
X683203Y298022D01*
G54D12*
X679470Y306022D02*
X675203Y306022D01*
X675736Y304689D01*
X676803Y302689D01*
X677870Y300022D01*
X678403Y298022D01*
X678403Y295356D01*
G54D10*
X85988Y306006D02*
X85988Y313944D01*
X121756Y313944D01*
X121756Y306006D01*
X85988Y306006D01*
G54D10*
X110594Y314006D02*
X110594Y328294D01*
X96306Y328294D01*
X96306Y314006D01*
G54D10*
X120119Y305275D02*
X120119Y291781D01*
X105831Y291781D01*
X105831Y305275D01*
G54D10*
X101069Y305275D02*
X101069Y291781D01*
X86781Y291781D01*
X86781Y305275D01*
G54D12*
X78019Y322837D02*
X75352Y312170D01*
X72686Y322837D01*
G54D12*
X66820Y312170D02*
X66820Y322837D01*
G54D12*
X68953Y322837D02*
X64686Y322837D01*
G54D12*
X57753Y312170D02*
X57753Y322837D01*
X60953Y316170D01*
X60953Y314837D01*
X56686Y314837D01*
G54D12*
X78114Y296646D02*
X78114Y307313D01*
X75447Y307313D01*
X74381Y306646D01*
X73847Y305313D01*
X73847Y303979D01*
X74381Y302646D01*
X75447Y301979D01*
X74381Y301313D01*
X73847Y299979D01*
X73847Y298646D01*
X74381Y297313D01*
X75447Y296646D01*
X78114Y296646D01*
G54D12*
X78114Y301979D02*
X75447Y301979D01*
G54D12*
X65847Y298646D02*
X66381Y297313D01*
X67447Y296646D01*
X68514Y296646D01*
X69581Y297313D01*
X70114Y298646D01*
X70114Y305313D01*
X69581Y306646D01*
X68514Y307313D01*
X67447Y307313D01*
X66381Y306646D01*
X65847Y305313D01*
G54D12*
X59447Y301979D02*
X60514Y301979D01*
X61581Y302646D01*
X62114Y303979D01*
X62114Y305313D01*
X61581Y306646D01*
X60514Y307313D01*
X59447Y307313D01*
X58381Y306646D01*
X57847Y305313D01*
X57847Y303979D01*
X58381Y302646D01*
X59447Y301979D01*
X58381Y301313D01*
X57847Y299979D01*
X57847Y298646D01*
X58381Y297313D01*
X59447Y296646D01*
X60514Y296646D01*
X61581Y297313D01*
X62114Y298646D01*
X62114Y299979D01*
X61581Y301313D01*
X60514Y301979D01*
G54D12*
X54114Y303313D02*
X51447Y307313D01*
X51447Y296646D01*
G54D12*
X47714Y307313D02*
X43447Y307313D01*
X43981Y305979D01*
X45047Y303979D01*
X46114Y301313D01*
X46647Y299313D01*
X46647Y296646D01*
G54D10*
X740944Y379838D02*
X733006Y379838D01*
X733006Y415606D01*
X740944Y415606D01*
X740944Y379838D01*
G54D10*
X732944Y404444D02*
X718656Y404444D01*
X718656Y390156D01*
X732944Y390156D01*
G54D10*
X741675Y413969D02*
X755169Y413969D01*
X755169Y399681D01*
X741675Y399681D01*
G54D10*
X741675Y394919D02*
X755169Y394919D01*
X755169Y380631D01*
X741675Y380631D01*
G54D12*
X711786Y409430D02*
X709120Y398764D01*
X706453Y409430D01*
G54D12*
X700587Y398764D02*
X700587Y409430D01*
G54D12*
X702720Y409430D02*
X698454Y409430D01*
G54D12*
X694720Y407430D02*
X694187Y408764D01*
X693120Y409430D01*
X692054Y409430D01*
X690987Y408764D01*
X690454Y407430D01*
X690454Y406097D01*
X690987Y404764D01*
X692054Y404097D01*
X690987Y403430D01*
X690454Y402097D01*
X690454Y400764D01*
X690987Y399430D01*
X692054Y398764D01*
X693120Y398764D01*
X694187Y399430D01*
X694720Y400764D01*
G54D12*
X711469Y384256D02*
X711469Y394923D01*
X708802Y394923D01*
X707736Y394256D01*
X707202Y392923D01*
X707202Y391589D01*
X707736Y390256D01*
X708802Y389589D01*
X707736Y388923D01*
X707202Y387589D01*
X707202Y386256D01*
X707736Y384923D01*
X708802Y384256D01*
X711469Y384256D01*
G54D12*
X711469Y389589D02*
X708802Y389589D01*
G54D12*
X699202Y386256D02*
X699736Y384923D01*
X700802Y384256D01*
X701869Y384256D01*
X702936Y384923D01*
X703469Y386256D01*
X703469Y392923D01*
X702936Y394256D01*
X701869Y394923D01*
X700802Y394923D01*
X699736Y394256D01*
X699202Y392923D01*
G54D12*
X692802Y389589D02*
X693869Y389589D01*
X694936Y390256D01*
X695469Y391589D01*
X695469Y392923D01*
X694936Y394256D01*
X693869Y394923D01*
X692802Y394923D01*
X691736Y394256D01*
X691202Y392923D01*
X691202Y391589D01*
X691736Y390256D01*
X692802Y389589D01*
X691736Y388923D01*
X691202Y387589D01*
X691202Y386256D01*
X691736Y384923D01*
X692802Y384256D01*
X693869Y384256D01*
X694936Y384923D01*
X695469Y386256D01*
X695469Y387589D01*
X694936Y388923D01*
X693869Y389589D01*
G54D12*
X684269Y384256D02*
X684269Y394923D01*
X687469Y388256D01*
X687469Y386923D01*
X683202Y386923D01*
G54D12*
X679469Y394923D02*
X675202Y394923D01*
X675736Y393589D01*
X676802Y391589D01*
X677869Y388923D01*
X678402Y386923D01*
X678402Y384256D01*
G54D10*
X85988Y147256D02*
X85988Y155194D01*
X121756Y155194D01*
X121756Y147256D01*
X85988Y147256D01*
G54D10*
X110594Y155256D02*
X110594Y169544D01*
X96306Y169544D01*
X96306Y155256D01*
G54D10*
X120119Y146525D02*
X120119Y133031D01*
X105831Y133031D01*
X105831Y146525D01*
G54D10*
X101069Y146525D02*
X101069Y133031D01*
X86781Y133031D01*
X86781Y146525D01*
G54D12*
X82510Y143532D02*
X79843Y132866D01*
X77177Y143532D01*
G54D12*
X71311Y132866D02*
X71311Y143532D01*
G54D12*
X73444Y143532D02*
X69177Y143532D01*
G54D12*
X61177Y132866D02*
X65444Y132866D01*
X65444Y133532D01*
X64911Y134866D01*
X61711Y138866D01*
X61177Y140199D01*
X61177Y141532D01*
X61711Y142866D01*
X62777Y143532D01*
X63844Y143532D01*
X64911Y142866D01*
X65444Y141532D01*
G54D12*
X81289Y118847D02*
X81289Y129514D01*
X78622Y129514D01*
X77556Y128847D01*
X77022Y127514D01*
X77022Y126180D01*
X77556Y124847D01*
X78622Y124180D01*
X77556Y123514D01*
X77022Y122180D01*
X77022Y120847D01*
X77556Y119514D01*
X78622Y118847D01*
X81289Y118847D01*
G54D12*
X81289Y124180D02*
X78622Y124180D01*
G54D12*
X69022Y120847D02*
X69556Y119514D01*
X70622Y118847D01*
X71689Y118847D01*
X72756Y119514D01*
X73289Y120847D01*
X73289Y127514D01*
X72756Y128847D01*
X71689Y129514D01*
X70622Y129514D01*
X69556Y128847D01*
X69022Y127514D01*
G54D12*
X62622Y124180D02*
X63689Y124180D01*
X64756Y124847D01*
X65289Y126180D01*
X65289Y127514D01*
X64756Y128847D01*
X63689Y129514D01*
X62622Y129514D01*
X61556Y128847D01*
X61022Y127514D01*
X61022Y126180D01*
X61556Y124847D01*
X62622Y124180D01*
X61556Y123514D01*
X61022Y122180D01*
X61022Y120847D01*
X61556Y119514D01*
X62622Y118847D01*
X63689Y118847D01*
X64756Y119514D01*
X65289Y120847D01*
X65289Y122180D01*
X64756Y123514D01*
X63689Y124180D01*
G54D12*
X57289Y125514D02*
X54622Y129514D01*
X54622Y118847D01*
G54D12*
X50889Y129514D02*
X46622Y129514D01*
X47156Y128180D01*
X48222Y126180D01*
X49289Y123514D01*
X49822Y121514D01*
X49822Y118847D01*
G54D10*
X1251212Y569531D02*
X1251212Y577469D01*
X1286981Y577469D01*
X1286981Y569531D01*
X1251212Y569531D01*
G54D10*
X1275819Y577531D02*
X1275819Y591819D01*
X1261531Y591819D01*
X1261531Y577531D01*
G54D10*
X1285344Y568800D02*
X1285344Y555306D01*
X1271056Y555306D01*
X1271056Y568800D01*
G54D10*
X1266294Y568800D02*
X1266294Y555306D01*
X1252006Y555306D01*
X1252006Y568800D01*
G54D12*
X1284230Y624492D02*
X1281564Y613825D01*
X1278897Y624492D01*
G54D12*
X1273031Y613825D02*
X1273031Y624492D01*
G54D12*
X1275164Y624492D02*
X1270898Y624492D01*
G54D12*
X1267164Y624492D02*
X1262898Y624492D01*
X1263431Y623158D01*
X1264498Y621158D01*
X1265564Y618492D01*
X1266098Y616492D01*
X1266098Y613825D01*
G54D12*
X1284613Y598271D02*
X1284613Y608938D01*
X1281946Y608938D01*
X1280880Y608271D01*
X1280346Y606938D01*
X1280346Y605604D01*
X1280880Y604271D01*
X1281946Y603604D01*
X1280880Y602938D01*
X1280346Y601604D01*
X1280346Y600271D01*
X1280880Y598938D01*
X1281946Y598271D01*
X1284613Y598271D01*
G54D12*
X1284613Y603604D02*
X1281946Y603604D01*
G54D12*
X1272346Y600271D02*
X1272880Y598938D01*
X1273946Y598271D01*
X1275013Y598271D01*
X1276080Y598938D01*
X1276613Y600271D01*
X1276613Y606938D01*
X1276080Y608271D01*
X1275013Y608938D01*
X1273946Y608938D01*
X1272880Y608271D01*
X1272346Y606938D01*
G54D12*
X1265946Y603604D02*
X1267013Y603604D01*
X1268080Y604271D01*
X1268613Y605604D01*
X1268613Y606938D01*
X1268080Y608271D01*
X1267013Y608938D01*
X1265946Y608938D01*
X1264880Y608271D01*
X1264346Y606938D01*
X1264346Y605604D01*
X1264880Y604271D01*
X1265946Y603604D01*
X1264880Y602938D01*
X1264346Y601604D01*
X1264346Y600271D01*
X1264880Y598938D01*
X1265946Y598271D01*
X1267013Y598271D01*
X1268080Y598938D01*
X1268613Y600271D01*
X1268613Y601604D01*
X1268080Y602938D01*
X1267013Y603604D01*
G54D12*
X1260613Y604938D02*
X1257946Y608938D01*
X1257946Y598271D01*
G54D12*
X1254213Y608938D02*
X1249946Y608938D01*
X1250480Y607604D01*
X1251546Y605604D01*
X1252613Y602938D01*
X1253146Y600938D01*
X1253146Y598271D01*
G54D10*
X732150Y184625D02*
X713100Y184625D01*
G54D10*
X735325Y181450D02*
X732150Y184625D01*
G54D10*
X735325Y181450D02*
X735325Y162400D01*
G54D10*
X709925Y181450D02*
X709925Y162400D01*
G54D10*
X713100Y159225D02*
X732150Y159225D01*
G54D10*
X735325Y162400D02*
X732150Y159225D01*
G54D10*
X713100Y159225D02*
X709925Y162400D01*
G54D10*
X709925Y181450D02*
X713100Y184625D01*
G54D12*
X705912Y166512D02*
X705912Y177179D01*
G54D12*
X705912Y169846D02*
X701646Y177179D01*
G54D12*
X704312Y171846D02*
X701646Y166512D01*
G54D12*
X695779Y166512D02*
X695779Y177179D01*
G54D12*
X697912Y177179D02*
X693646Y177179D01*
G54D12*
X689912Y173179D02*
X687246Y177179D01*
X687246Y166512D01*
G54D13*
X1052825Y492600D02*
X852800Y492600D01*
X852800Y645000D01*
X1052825Y645000D01*
X1052825Y492600D01*
G54D13*
X1052825Y492600D02*
X1103625Y518000D01*
G54D13*
X1103625Y619600D02*
X1103625Y518000D01*
G54D13*
X1052825Y645000D02*
X1103625Y619600D01*
X1078225Y568800D02*
G54D15*
D03*
G54D13*
X852800Y530700D02*
X846450Y530700D01*
G54D13*
X852800Y556100D02*
X846450Y556100D01*
G54D13*
X852800Y581500D02*
X846450Y581500D01*
G54D13*
X852800Y606900D02*
X846450Y606900D01*
G54D13*
X1024250Y492600D02*
X1024250Y530700D01*
X1011550Y530700D01*
G54D13*
X1011550Y530700D02*
X1011550Y492600D01*
G54D13*
X998850Y492600D02*
X998850Y530700D01*
X986150Y530700D01*
G54D13*
X986150Y530700D02*
X986150Y492600D01*
G54D13*
X973450Y492600D02*
X973450Y530700D01*
X960750Y530700D01*
G54D13*
X960750Y530700D02*
X960750Y492600D01*
G54D13*
X948050Y492600D02*
X948050Y530700D01*
X935350Y530700D01*
G54D13*
X935350Y530700D02*
X935350Y492600D01*
G54D13*
X922650Y492600D02*
X922650Y530700D01*
X909950Y530700D01*
G54D13*
X909950Y530700D02*
X909950Y492600D01*
G54D13*
X1024250Y645134D02*
X1024250Y607034D01*
X1011550Y607034D01*
G54D13*
X1011550Y607034D02*
X1011550Y645134D01*
G54D13*
X998850Y645134D02*
X998850Y607034D01*
X986150Y607034D01*
G54D13*
X986150Y607034D02*
X986150Y645134D01*
G54D13*
X973450Y645134D02*
X973450Y607034D01*
X960750Y607034D01*
G54D13*
X960750Y607034D02*
X960750Y645134D01*
G54D13*
X948050Y645134D02*
X948050Y607034D01*
X935350Y607034D01*
G54D13*
X935350Y607034D02*
X935350Y645134D01*
G54D13*
X922650Y645134D02*
X922650Y607034D01*
X909950Y607034D01*
G54D13*
X909950Y607034D02*
X909950Y645134D01*
G54D13*
X1052825Y540225D02*
X1033775Y540225D01*
X1033775Y552925D01*
X1052825Y552925D01*
G54D13*
X1052825Y562450D02*
X1033775Y562450D01*
X1033775Y575150D01*
X1052825Y575150D01*
G54D13*
X1052825Y584675D02*
X1033775Y584675D01*
X1033775Y597509D01*
X1052691Y597509D01*
X1052825Y597375D01*
G54D13*
X1024250Y540225D02*
X1011550Y540225D01*
X1011550Y552925D01*
X1024250Y552925D01*
X1024250Y540225D01*
G54D13*
X1024250Y562450D02*
X1011550Y562450D01*
X1011550Y575150D01*
X1024250Y575150D01*
X1024250Y562450D01*
G54D13*
X1024250Y584675D02*
X1011550Y584675D01*
X1011550Y597375D01*
X1024250Y597375D01*
X1024250Y584675D01*
G54D13*
X998850Y540225D02*
X986150Y540225D01*
X986150Y552925D01*
X998850Y552925D01*
X998850Y540225D01*
G54D13*
X998850Y562450D02*
X986150Y562450D01*
X986150Y575150D01*
X998850Y575150D01*
X998850Y562450D01*
G54D13*
X998850Y584675D02*
X986150Y584675D01*
X986150Y597375D01*
X998850Y597375D01*
X998850Y584675D01*
G54D13*
X973450Y540225D02*
X960750Y540225D01*
X960750Y552925D01*
X973450Y552925D01*
X973450Y540225D01*
G54D13*
X973450Y562450D02*
X960750Y562450D01*
X960750Y575150D01*
X973450Y575150D01*
X973450Y562450D01*
G54D13*
X973450Y584675D02*
X960750Y584675D01*
X960750Y597375D01*
X973450Y597375D01*
X973450Y584675D01*
G54D13*
X948050Y540225D02*
X935350Y540225D01*
X935350Y552925D01*
X948050Y552925D01*
X948050Y540225D01*
G54D13*
X948050Y562450D02*
X935350Y562450D01*
X935350Y575150D01*
X948050Y575150D01*
X948050Y562450D01*
G54D13*
X948050Y584675D02*
X935350Y584675D01*
X935350Y597375D01*
X948050Y597375D01*
X948050Y584675D01*
G54D13*
X922650Y540225D02*
X909950Y540225D01*
X909950Y552925D01*
X922650Y552925D01*
X922650Y540225D01*
G54D13*
X922650Y562450D02*
X909950Y562450D01*
X909950Y575150D01*
X922650Y575150D01*
X922650Y562450D01*
G54D13*
X922650Y584675D02*
X909950Y584675D01*
X909950Y597375D01*
X922650Y597375D01*
X922650Y584675D01*
G54D12*
X1138190Y563074D02*
X1138190Y573741D01*
X1135524Y573741D01*
X1134457Y573074D01*
X1133924Y571741D01*
X1133924Y565074D01*
X1134457Y563741D01*
X1135524Y563074D01*
X1138190Y563074D01*
G54D12*
X1130190Y563074D02*
X1130190Y573741D01*
X1127524Y573741D01*
X1126457Y573074D01*
X1125924Y571741D01*
X1125924Y565074D01*
X1126457Y563741D01*
X1127524Y563074D01*
X1130190Y563074D01*
G54D12*
X1118990Y563074D02*
X1118990Y573741D01*
X1122190Y567074D01*
X1122190Y565741D01*
X1117924Y565741D01*
G54D12*
X902067Y564025D02*
X902067Y574692D01*
X899400Y574692D01*
X898334Y574025D01*
X897800Y572692D01*
X897800Y566025D01*
X898334Y564692D01*
X899400Y564025D01*
X902067Y564025D01*
G54D12*
X894067Y564025D02*
X894067Y574692D01*
G54D12*
X889800Y564025D02*
X889800Y574692D01*
G54D12*
X894067Y569358D02*
X889800Y569358D01*
G54D12*
X883934Y564025D02*
X883934Y574692D01*
G54D12*
X886067Y574692D02*
X881800Y574692D01*
G54D12*
X878067Y568692D02*
X873800Y568692D01*
G54D12*
X865800Y564025D02*
X870067Y564025D01*
X870067Y564692D01*
X869534Y566025D01*
X866334Y570025D01*
X865800Y571358D01*
X865800Y572692D01*
X866334Y574025D01*
X867400Y574692D01*
X868467Y574692D01*
X869534Y574025D01*
X870067Y572692D01*
G54D12*
X857800Y564025D02*
X862067Y564025D01*
X862067Y564692D01*
X861534Y566025D01*
X858334Y570025D01*
X857800Y571358D01*
X857800Y572692D01*
X858334Y574025D01*
X859400Y574692D01*
X860467Y574692D01*
X861534Y574025D01*
X862067Y572692D01*
G54D13*
X1135375Y283050D02*
X811525Y283050D01*
X811525Y479900D01*
X1135375Y479900D01*
X1135375Y283050D01*
G54D16*
X865500Y403700D02*
X865500Y417033D01*
G54D16*
X860167Y403700D02*
X860167Y417033D01*
G54D16*
X865500Y410367D02*
X860167Y410367D01*
G54D16*
X855500Y403700D02*
X855500Y417033D01*
X852167Y417033D01*
X850833Y416200D01*
X850167Y414533D01*
X850167Y406200D01*
X850833Y404533D01*
X852167Y403700D01*
X855500Y403700D01*
G54D16*
X862833Y352900D02*
X862833Y366233D01*
G54D16*
X865500Y366233D02*
X860167Y366233D01*
G54D16*
X855500Y360400D02*
X850167Y352900D01*
G54D16*
X855500Y352900D02*
X850167Y360400D01*
G54D16*
X862833Y334167D02*
X860833Y332500D01*
X860167Y330833D01*
X860167Y327500D01*
G54D16*
X865500Y327500D02*
X865500Y340833D01*
X862167Y340833D01*
X860833Y340000D01*
X860167Y338333D01*
X860167Y336667D01*
X860833Y335000D01*
X862167Y334167D01*
X865500Y334167D01*
G54D16*
X855500Y335000D02*
X850167Y327500D01*
G54D16*
X855500Y327500D02*
X850167Y335000D01*
G54D16*
X865500Y315433D02*
X862167Y302100D01*
X858833Y315433D01*
G54D16*
X850166Y304100D02*
X850166Y307433D01*
X850833Y309100D01*
X852166Y309600D01*
X853499Y309100D01*
X854166Y307433D01*
X854166Y304100D01*
X853499Y302433D01*
X852166Y302100D01*
X850833Y302433D01*
X850166Y304100D01*
G54D16*
X1106800Y378300D02*
X1106800Y391633D01*
X1103467Y391633D01*
X1102133Y390800D01*
X1101467Y389133D01*
X1101467Y387467D01*
X1102133Y385800D01*
X1103467Y384967D01*
X1106800Y384967D01*
G54D16*
X1096800Y391633D02*
X1096800Y378300D01*
X1093467Y386633D01*
X1090133Y378300D01*
X1090133Y391633D01*
G54D16*
X1085466Y378300D02*
X1085466Y391633D01*
X1082133Y383300D01*
X1078799Y391633D01*
X1078799Y378300D01*
G54D16*
X1104133Y334167D02*
X1101467Y334167D01*
X1101467Y330000D01*
X1102133Y328333D01*
X1103467Y327500D01*
X1104800Y327500D01*
X1106133Y328333D01*
X1106800Y330000D01*
X1106800Y338333D01*
X1106133Y340000D01*
X1104800Y340833D01*
X1103467Y340833D01*
X1102133Y340000D01*
X1101467Y338333D01*
G54D16*
X1096800Y327500D02*
X1096800Y340833D01*
X1091467Y327500D01*
X1091467Y340833D01*
G54D16*
X1086800Y327500D02*
X1086800Y340833D01*
X1083467Y340833D01*
X1082133Y340000D01*
X1081467Y338333D01*
X1081467Y330000D01*
X1082133Y328333D01*
X1083467Y327500D01*
X1086800Y327500D01*
G54D16*
X1106800Y315433D02*
X1103467Y302100D01*
X1100133Y315433D01*
G54D16*
X1095466Y302100D02*
X1095466Y309600D01*
G54D16*
X1095466Y312100D02*
X1095466Y312100D01*
G54D16*
X1090799Y302100D02*
X1090799Y309600D01*
G54D16*
X1090799Y307933D02*
X1090132Y309100D01*
X1088799Y309600D01*
X1087466Y309100D01*
X1086799Y307933D01*
X1086799Y302100D01*
G54D12*
X1134788Y484262D02*
X1134788Y494929D01*
X1132121Y494929D01*
X1131054Y494262D01*
X1130521Y492929D01*
X1130521Y486262D01*
X1131054Y484929D01*
X1132121Y484262D01*
X1134788Y484262D01*
G54D12*
X1126788Y484262D02*
X1126788Y494929D01*
X1124121Y494929D01*
X1123054Y494262D01*
X1122521Y492929D01*
X1122521Y486262D01*
X1123054Y484929D01*
X1124121Y484262D01*
X1126788Y484262D01*
G54D12*
X1114521Y494929D02*
X1118788Y494929D01*
X1118788Y490262D01*
X1118254Y490262D01*
X1117188Y490929D01*
X1116121Y490929D01*
X1115054Y490262D01*
X1114521Y488929D01*
X1114521Y486262D01*
X1115054Y484929D01*
X1116121Y484262D01*
X1117188Y484262D01*
X1118254Y484929D01*
X1118788Y486262D01*
G54D12*
X1131612Y466262D02*
X1131612Y476929D01*
X1128946Y470262D01*
X1126279Y476929D01*
X1126279Y466262D01*
G54D12*
X1122546Y466262D02*
X1122546Y476929D01*
G54D12*
X1118280Y466262D02*
X1118280Y476929D01*
G54D12*
X1122546Y471596D02*
X1118280Y471596D01*
G54D12*
X1114546Y470929D02*
X1110280Y470929D01*
G54D12*
X1106546Y476929D02*
X1102280Y476929D01*
X1106546Y466262D01*
X1102280Y466262D01*
G54D12*
X1098546Y472929D02*
X1095880Y476929D01*
X1095880Y466262D01*
G54D12*
X1092146Y468262D02*
X1091613Y466929D01*
X1090546Y466262D01*
X1089480Y466262D01*
X1088413Y466929D01*
X1087880Y468262D01*
X1087880Y471596D01*
X1087880Y472262D01*
X1089480Y470929D01*
X1090546Y470929D01*
X1091613Y471596D01*
X1092146Y472929D01*
X1092146Y474929D01*
X1091613Y476262D01*
X1090546Y476929D01*
X1089480Y476929D01*
X1088413Y476262D01*
X1087880Y474929D01*
X1087880Y471596D01*
G54D12*
X1084146Y466262D02*
X1084146Y476929D01*
X1081480Y476929D01*
X1080413Y476262D01*
X1079880Y474929D01*
X1079880Y473596D01*
X1080413Y472262D01*
X1081480Y471596D01*
X1080413Y470929D01*
X1079880Y469596D01*
X1079880Y468262D01*
X1080413Y466929D01*
X1081480Y466262D01*
X1084146Y466262D01*
G54D12*
X1084146Y471596D02*
X1081480Y471596D01*
G54D10*
X738475Y121150D02*
X655975Y121150D01*
X655975Y89550D01*
X738475Y89550D01*
X738475Y121150D01*
G54D10*
X738475Y118050D02*
X744775Y118050D01*
G54D10*
X738475Y92650D02*
X744775Y92650D01*
G54D12*
X737882Y135797D02*
X733616Y135797D01*
X737882Y125130D01*
X733616Y125130D01*
G54D12*
X727749Y127130D02*
X725082Y125130D01*
G54D12*
X725616Y133797D02*
X725616Y127130D01*
X726149Y125797D01*
X727216Y125130D01*
X728282Y125130D01*
X729349Y125797D01*
X729882Y127130D01*
X729882Y133797D01*
X729349Y135130D01*
X728282Y135797D01*
X727216Y135797D01*
X726149Y135130D01*
X725616Y133797D01*
G54D12*
X721350Y131797D02*
X718683Y135797D01*
X718683Y125130D01*
G54D12*
X716792Y109388D02*
X716258Y110722D01*
X715192Y111388D01*
X714125Y111388D01*
X713058Y110722D01*
X712525Y109388D01*
X712525Y108055D01*
X713058Y106722D01*
X714125Y106055D01*
X713058Y105388D01*
X712525Y104055D01*
X712525Y102722D01*
X713058Y101388D01*
X714125Y100722D01*
X715192Y100722D01*
X716258Y101388D01*
X716792Y102722D01*
G54D12*
X704525Y100722D02*
X708792Y100722D01*
X708792Y101388D01*
X708258Y102722D01*
X705058Y106722D01*
X704525Y108055D01*
X704525Y109388D01*
X705058Y110722D01*
X706125Y111388D01*
X707192Y111388D01*
X708258Y110722D01*
X708792Y109388D01*
G54D12*
X700792Y111388D02*
X696525Y111388D01*
X697058Y110055D01*
X698125Y108055D01*
X699192Y105388D01*
X699725Y103388D01*
X699725Y100722D01*
G54D12*
X688525Y109388D02*
X689058Y110722D01*
X690125Y111388D01*
X691192Y111388D01*
X692258Y110722D01*
X692792Y109388D01*
X692792Y106055D01*
X692792Y105388D01*
X691192Y106722D01*
X690125Y106722D01*
X689058Y106055D01*
X688525Y104722D01*
X688525Y102722D01*
X689058Y101388D01*
X690125Y100722D01*
X691192Y100722D01*
X692258Y101388D01*
X692792Y102722D01*
X692792Y106055D01*
G54D12*
X682125Y106055D02*
X683192Y106055D01*
X684258Y106722D01*
X684792Y108055D01*
X684792Y109388D01*
X684258Y110722D01*
X683192Y111388D01*
X682125Y111388D01*
X681058Y110722D01*
X680525Y109388D01*
X680525Y108055D01*
X681058Y106722D01*
X682125Y106055D01*
X681058Y105388D01*
X680525Y104055D01*
X680525Y102722D01*
X681058Y101388D01*
X682125Y100722D01*
X683192Y100722D01*
X684258Y101388D01*
X684792Y102722D01*
X684792Y104055D01*
X684258Y105388D01*
X683192Y106055D01*
G36*
X386075Y286225D02*
X386075Y279875D01*
X392425Y279875D01*
X392425Y286225D01*
X386075Y286225D01*
G37*
G54D13*
X386075Y286225D02*
X386075Y279875D01*
X392425Y279875D01*
X392425Y286225D01*
X386075Y286225D01*
M02*
