; Drill file
; Format: 3.3 (000.000)
M48
METRIC
T01C0.3
T02C0.6
T03C0.7
T04C0.9
T05C1.2
T06C2.1
T07C3.2
%
G05
G90
T01
X007180Y015290
X007180Y016080
X018600Y020840
X018600Y021640
X018600Y036720
X018600Y037510
X018600Y052590
X018600Y053390
X039560Y057520
X040200Y057520
X048130Y057520
X048930Y057520
X051310Y059100
X052100Y059100
X066860Y057520
X069720Y055290
X078610Y060690
X079410Y060690
X079410Y062600
X078610Y062600
X079880Y042910
X079880Y035610
X073530Y021800
X072900Y021800
X072900Y019730
X073530Y019730
X065750Y025920
X064010Y024970
X058450Y024970
X056860Y025760
X055590Y026720
X051780Y023380
X047500Y024020
X047500Y022430
X047500Y021000
X050360Y012430
X050990Y012430
X058930Y014020
X059560Y014020
X053370Y032910
X051780Y032910
X048930Y035290
X043690Y036400
X037020Y022270
X038610Y014020
X039240Y014020
X117350Y017510
X118140Y017510
X118140Y019730
X117350Y019730
X120680Y024970
X126560Y024970
X123060Y052750
X123060Y056240
T02
X067660Y007670
X067660Y013380
X075440Y011800
X075440Y009260
X083380Y053070
X083380Y055610
X083380Y058150
X083380Y060690
X123000Y058500
X130620Y058500
T03
X010350Y018780
X012890Y018780
X012890Y034660
X010350Y034660
X010350Y050530
X012890Y050530
X029400Y052750
X031940Y055290
X029400Y057830
T04
X031940Y029890
X034480Y029890
X037020Y029890
X037020Y032430
X034480Y032430
X031940Y032430
X031940Y061960
X029400Y061960
X034480Y061960
X037020Y061960
X039560Y061960
X042100Y061960
X044640Y061960
X047180Y061960
X049720Y061960
X052260Y061960
X054800Y061960
X057340Y061960
X059880Y061960
X062420Y061960
X064960Y061960
X067500Y061960
X082740Y041640
X082740Y039100
X082740Y036560
X082740Y034020
X082740Y031480
X072260Y017190
X112270Y031480
X112270Y034020
X112270Y036560
X112270Y039100
X127820Y042590
X132900Y042590
X132900Y026400
X130360Y026400
X127820Y026400
X139580Y021240
X139580Y016940
T05
X085280Y015920
X105280Y015920
T06
X124330Y034500
X136400Y034500
T07
X008000Y008500
X021740Y007000
X021740Y062000
X008000Y060500
X107820Y056880
X114740Y062000
X140000Y060500
X140000Y008500
X114740Y007000
M30
