%FSLAX34Y34*%
%MOMM*%
%LNCOPPER_BOTTOM*%
G71*
G01*
%ADD10C, 1.800*%
%ADD11C, 1.800*%
%ADD12C, 1.600*%
%ADD13C, 6.000*%
%ADD14C, 1.600*%
%ADD15R, 0.500X1.000*%
%ADD16R, 1.000X0.500*%
%ADD17R, 2.600X0.800*%
%ADD18R, 2.400X0.800*%
%ADD19C, 2.200*%
%ADD20R, 2.500X2.000*%
%ADD21R, 2.000X0.500*%
%ADD22R, 3.600X5.200*%
%ADD23R, 3.500X2.000*%
%ADD24R, 1.500X1.200*%
%ADD25R, 1.200X1.500*%
%ADD26R, 1.800X1.500*%
%ADD27R, 1.500X1.800*%
%ADD28C, 1.600*%
%ADD29R, 1.700X1.800*%
%ADD30R, 1.100X1.100*%
%ADD31C, 2.000*%
%ADD32C, 0.800*%
%ADD33C, 0.500*%
%ADD34C, 0.200*%
%ADD35C, 1.800*%
%ADD36C, 1.000*%
%ADD37C, 1.000*%
%ADD38C, 0.400*%
%ADD39C, 0.600*%
%ADD40C, 0.300*%
%ADD41C, 0.556*%
%ADD42C, 0.318*%
%ADD43C, 0.476*%
%ADD44R, 1.900X1.500*%
%ADD45R, 2.100X4.200*%
%ADD46R, 2.000X3.500*%
%LPD*%
G54D10*
X294000Y628600D02*
X294000Y610600D01*
G54D10*
X319400Y628600D02*
X319400Y610600D01*
G54D10*
X344800Y628600D02*
X344800Y610600D01*
G54D10*
X370200Y628600D02*
X370200Y610600D01*
G54D10*
X395600Y628600D02*
X395600Y610600D01*
G54D10*
X421000Y628600D02*
X421000Y610600D01*
G54D10*
X446400Y628600D02*
X446400Y610600D01*
G54D10*
X471800Y628600D02*
X471800Y610600D01*
G54D10*
X497200Y628600D02*
X497200Y610600D01*
G54D10*
X522600Y628600D02*
X522600Y610600D01*
G54D10*
X548000Y628600D02*
X548000Y610600D01*
G54D10*
X573400Y628600D02*
X573400Y610600D01*
G54D10*
X598800Y628600D02*
X598800Y610600D01*
G54D10*
X624200Y628600D02*
X624200Y610600D01*
G54D10*
X649600Y628600D02*
X649600Y610600D01*
G54D10*
X675000Y628600D02*
X675000Y610600D01*
X1278250Y264000D02*
G54D11*
D03*
X1303650Y264000D02*
G54D11*
D03*
X1329050Y264000D02*
G54D11*
D03*
X1278250Y425925D02*
G54D11*
D03*
X1329050Y425925D02*
G54D11*
D03*
G36*
X1226825Y351810D02*
X1236477Y361462D01*
X1250173Y361462D01*
X1259825Y351810D01*
X1259825Y338114D01*
X1250173Y328462D01*
X1236477Y328462D01*
X1226825Y338114D01*
X1226825Y351810D01*
G37*
G36*
X1347475Y351810D02*
X1357127Y361462D01*
X1370823Y361462D01*
X1380475Y351810D01*
X1380475Y338114D01*
X1370823Y328462D01*
X1357127Y328462D01*
X1347475Y338114D01*
X1347475Y351810D01*
G37*
G36*
X136900Y497300D02*
X120900Y497300D01*
X120900Y513300D01*
X136900Y513300D01*
X136900Y497300D01*
G37*
X103500Y505300D02*
G54D12*
D03*
G36*
X136900Y338550D02*
X120900Y338550D01*
X120900Y354550D01*
X136900Y354550D01*
X136900Y338550D01*
G37*
X103500Y346550D02*
G54D12*
D03*
G36*
X136900Y179800D02*
X120900Y179800D01*
X120900Y195800D01*
X136900Y195800D01*
X136900Y179800D01*
G37*
X103500Y187800D02*
G54D12*
D03*
X80000Y605000D02*
G54D13*
D03*
X80000Y85000D02*
G54D13*
D03*
X1400000Y85000D02*
G54D13*
D03*
X1400000Y605000D02*
G54D13*
D03*
G36*
X1222000Y593000D02*
X1238000Y593000D01*
X1238000Y577000D01*
X1222000Y577000D01*
X1222000Y593000D01*
G37*
X1306200Y585000D02*
G54D14*
D03*
X525775Y194150D02*
G54D15*
D03*
X517775Y194150D02*
G54D15*
D03*
X509775Y194150D02*
G54D15*
D03*
X501775Y194150D02*
G54D15*
D03*
X493775Y194150D02*
G54D15*
D03*
X485775Y194150D02*
G54D15*
D03*
X477775Y194150D02*
G54D15*
D03*
X469775Y194150D02*
G54D15*
D03*
X525775Y282150D02*
G54D15*
D03*
X517775Y282150D02*
G54D15*
D03*
X509775Y282150D02*
G54D15*
D03*
X501775Y282150D02*
G54D15*
D03*
X493775Y282150D02*
G54D15*
D03*
X485775Y282150D02*
G54D15*
D03*
X477775Y282150D02*
G54D15*
D03*
X469775Y282150D02*
G54D15*
D03*
X453775Y210150D02*
G54D16*
D03*
X453775Y218150D02*
G54D16*
D03*
X453775Y226150D02*
G54D16*
D03*
X453775Y234150D02*
G54D16*
D03*
X453775Y242150D02*
G54D16*
D03*
X453775Y250150D02*
G54D16*
D03*
X453775Y258150D02*
G54D16*
D03*
X453775Y266150D02*
G54D16*
D03*
X541775Y210150D02*
G54D16*
D03*
X541775Y218150D02*
G54D16*
D03*
X541775Y226150D02*
G54D16*
D03*
X541775Y234150D02*
G54D16*
D03*
X541775Y242150D02*
G54D16*
D03*
X541775Y250150D02*
G54D16*
D03*
X541775Y258150D02*
G54D16*
D03*
X541775Y266150D02*
G54D16*
D03*
X455925Y486250D02*
G54D17*
D03*
X455925Y498950D02*
G54D17*
D03*
X455925Y511650D02*
G54D17*
D03*
X455925Y524350D02*
G54D17*
D03*
X455925Y537050D02*
G54D17*
D03*
X455925Y549750D02*
G54D17*
D03*
X455925Y562450D02*
G54D17*
D03*
X455925Y575150D02*
G54D17*
D03*
X547925Y575150D02*
G54D17*
D03*
X547925Y562450D02*
G54D17*
D03*
X547925Y549750D02*
G54D17*
D03*
X547925Y537050D02*
G54D17*
D03*
X547925Y524350D02*
G54D17*
D03*
X547925Y511650D02*
G54D17*
D03*
X547925Y498950D02*
G54D17*
D03*
X547925Y486250D02*
G54D17*
D03*
X754375Y146525D02*
G54D18*
D03*
X754375Y159225D02*
G54D18*
D03*
X754375Y171925D02*
G54D18*
D03*
X754375Y184625D02*
G54D18*
D03*
X804375Y184625D02*
G54D18*
D03*
X804375Y171925D02*
G54D18*
D03*
X804375Y159225D02*
G54D18*
D03*
X804375Y146525D02*
G54D18*
D03*
X1052825Y159225D02*
G54D19*
D03*
X852825Y159225D02*
G54D19*
D03*
X1370325Y235425D02*
G54D20*
D03*
X1425825Y235425D02*
G54D20*
D03*
X1370325Y146425D02*
G54D20*
D03*
X1425825Y146425D02*
G54D20*
D03*
X1365838Y174969D02*
G54D21*
D03*
X1365838Y206969D02*
G54D21*
D03*
X1365838Y198969D02*
G54D21*
D03*
X1365838Y190969D02*
G54D21*
D03*
X1365838Y182969D02*
G54D21*
D03*
X1236975Y89375D02*
G54D22*
D03*
X1290950Y89375D02*
G54D22*
D03*
X1290950Y152875D02*
G54D23*
D03*
X1290950Y219550D02*
G54D23*
D03*
X1236975Y152875D02*
G54D23*
D03*
X1236975Y219550D02*
G54D23*
D03*
X1198875Y176688D02*
G54D24*
D03*
X1198875Y197288D02*
G54D24*
D03*
X795650Y92550D02*
G54D25*
D03*
X775050Y92550D02*
G54D25*
D03*
X795650Y117950D02*
G54D25*
D03*
X775050Y117950D02*
G54D25*
D03*
X770250Y206850D02*
G54D25*
D03*
X790850Y206850D02*
G54D25*
D03*
X500375Y464025D02*
G54D25*
D03*
X479775Y464025D02*
G54D25*
D03*
X509900Y168750D02*
G54D25*
D03*
X489300Y168750D02*
G54D25*
D03*
X500375Y305275D02*
G54D25*
D03*
X479775Y305275D02*
G54D25*
D03*
X500338Y330675D02*
G54D25*
D03*
X479738Y330675D02*
G54D25*
D03*
X1144862Y248125D02*
G54D25*
D03*
X1124262Y248125D02*
G54D25*
D03*
X811525Y626585D02*
G54D24*
D03*
X811525Y605985D02*
G54D24*
D03*
X1290950Y292575D02*
G54D25*
D03*
X1270350Y292575D02*
G54D25*
D03*
X1336988Y292575D02*
G54D25*
D03*
X1316388Y292575D02*
G54D25*
D03*
X592450Y156050D02*
G54D26*
D03*
X592450Y185418D02*
G54D26*
D03*
X583242Y432275D02*
G54D27*
D03*
X553874Y432275D02*
G54D27*
D03*
X568638Y460850D02*
G54D27*
D03*
X539270Y460850D02*
G54D27*
D03*
X725800Y571975D02*
G54D27*
D03*
X696432Y571975D02*
G54D27*
D03*
X186050Y505300D02*
G54D27*
D03*
X156682Y505300D02*
G54D27*
D03*
X186050Y346550D02*
G54D27*
D03*
X156682Y346550D02*
G54D27*
D03*
X186050Y187800D02*
G54D27*
D03*
X156682Y187800D02*
G54D27*
D03*
X776600Y356075D02*
G54D27*
D03*
X747232Y356075D02*
G54D27*
D03*
X776600Y298925D02*
G54D26*
D03*
X776600Y328293D02*
G54D26*
D03*
X622612Y156050D02*
G54D26*
D03*
X622612Y185418D02*
G54D26*
D03*
X186050Y454500D02*
G54D27*
D03*
X156682Y454500D02*
G54D27*
D03*
X454338Y330675D02*
G54D26*
D03*
X454338Y301307D02*
G54D26*
D03*
X186050Y298925D02*
G54D27*
D03*
X156682Y298925D02*
G54D27*
D03*
X776600Y444975D02*
G54D27*
D03*
X747232Y444975D02*
G54D27*
D03*
X776600Y387825D02*
G54D26*
D03*
X776600Y417193D02*
G54D26*
D03*
X562288Y156050D02*
G54D26*
D03*
X562288Y185418D02*
G54D26*
D03*
X186050Y140175D02*
G54D27*
D03*
X156682Y140175D02*
G54D27*
D03*
X1278250Y527525D02*
G54D27*
D03*
X1248882Y527525D02*
G54D27*
D03*
X1249675Y292575D02*
G54D27*
D03*
X1220307Y292575D02*
G54D27*
D03*
X1249675Y264000D02*
G54D27*
D03*
X1220307Y264000D02*
G54D27*
D03*
X1249675Y391000D02*
G54D27*
D03*
X1220307Y391000D02*
G54D27*
D03*
X805175Y527525D02*
G54D26*
D03*
X805175Y556893D02*
G54D26*
D03*
G36*
X362200Y290925D02*
X362200Y306925D01*
X378200Y306925D01*
X378200Y290925D01*
X362200Y290925D01*
G37*
X370200Y324325D02*
G54D28*
D03*
X344800Y298925D02*
G54D28*
D03*
X344800Y324325D02*
G54D28*
D03*
X319400Y298925D02*
G54D28*
D03*
X319400Y324325D02*
G54D28*
D03*
X294000Y527525D02*
G54D12*
D03*
X294000Y578325D02*
G54D12*
D03*
X319400Y552925D02*
G54D12*
D03*
X430525Y168750D02*
G54D29*
D03*
X389250Y168750D02*
G54D29*
D03*
X430525Y205262D02*
G54D29*
D03*
X389250Y205262D02*
G54D29*
D03*
X706750Y597375D02*
G54D30*
D03*
X725750Y597375D02*
G54D30*
D03*
X716250Y619575D02*
G54D30*
D03*
X93975Y454500D02*
G54D30*
D03*
X112975Y454500D02*
G54D30*
D03*
X103475Y476700D02*
G54D30*
D03*
X748025Y298925D02*
G54D30*
D03*
X748025Y317925D02*
G54D30*
D03*
X725825Y308425D02*
G54D30*
D03*
X93975Y298925D02*
G54D30*
D03*
X112975Y298925D02*
G54D30*
D03*
X103475Y321125D02*
G54D30*
D03*
X748025Y387825D02*
G54D30*
D03*
X748025Y406825D02*
G54D30*
D03*
X725825Y397325D02*
G54D30*
D03*
X93975Y140175D02*
G54D30*
D03*
X112975Y140175D02*
G54D30*
D03*
X103475Y162375D02*
G54D30*
D03*
X1259200Y562450D02*
G54D30*
D03*
X1278200Y562450D02*
G54D30*
D03*
X1268700Y584650D02*
G54D30*
D03*
X722625Y171925D02*
G54D31*
D03*
G36*
X825750Y522700D02*
X825750Y538700D01*
X841750Y538700D01*
X841750Y522700D01*
X825750Y522700D01*
G37*
X833750Y556100D02*
G54D14*
D03*
X833750Y581500D02*
G54D14*
D03*
X833750Y606900D02*
G54D14*
D03*
X1122675Y391000D02*
G54D11*
D03*
X1122675Y365600D02*
G54D11*
D03*
X1122675Y340200D02*
G54D11*
D03*
X1122675Y314800D02*
G54D11*
D03*
X827400Y314800D02*
G54D11*
D03*
X827400Y340200D02*
G54D11*
D03*
X827400Y365600D02*
G54D11*
D03*
X827400Y391000D02*
G54D11*
D03*
X827400Y416400D02*
G54D11*
D03*
G54D32*
X1236975Y152875D02*
X1236975Y89375D01*
G54D32*
X1290950Y152875D02*
X1290950Y89375D01*
G54D33*
X1365838Y206969D02*
X1329169Y206969D01*
X1319525Y197325D01*
X1319525Y175100D01*
X1303650Y159225D01*
G36*
X1383025Y219550D02*
X1383025Y162400D01*
X1440175Y162400D01*
X1440175Y219550D01*
X1383025Y219550D01*
G37*
G54D34*
X1383025Y219550D02*
X1383025Y162400D01*
X1440175Y162400D01*
X1440175Y219550D01*
X1383025Y219550D01*
G54D33*
X1425825Y146425D02*
X1425825Y163925D01*
X1427475Y165575D01*
G54D33*
X1425825Y235425D02*
X1425825Y214725D01*
X1424300Y213200D01*
G54D33*
X1370325Y146425D02*
X1425825Y146425D01*
G54D33*
X1370325Y235425D02*
X1425825Y235425D01*
G54D33*
X1370325Y235425D02*
X1370325Y216375D01*
X1386200Y216375D01*
G54D33*
X1370325Y146425D02*
X1370325Y165575D01*
X1386200Y165575D01*
G54D33*
X1236975Y219550D02*
X1354450Y219550D01*
X1370325Y235425D01*
G54D33*
X1370325Y175100D02*
X1386200Y175100D01*
G54D33*
X1329050Y264000D02*
X1329050Y286225D01*
X1335400Y292575D01*
G54D33*
X1278250Y264000D02*
X1278250Y284675D01*
X1270350Y292575D01*
G54D33*
X547925Y575150D02*
X547925Y619525D01*
X548000Y619600D01*
G54D33*
X547925Y562450D02*
X563875Y562450D01*
X573400Y571975D01*
X573400Y619600D01*
G54D33*
X547925Y549750D02*
X576575Y549750D01*
X598800Y571975D01*
X598800Y619600D01*
G54D33*
X547925Y537050D02*
X592450Y537050D01*
X624200Y568800D01*
X624200Y619600D01*
G54D33*
X455925Y537050D02*
X433700Y537050D01*
X421000Y549750D01*
X421000Y619600D01*
G54D33*
X455925Y524350D02*
X395600Y524350D01*
X370200Y549750D01*
X370200Y619600D01*
X217400Y620000D02*
G54D13*
D03*
X217400Y70000D02*
G54D13*
D03*
X1147400Y70000D02*
G54D13*
D03*
X1147400Y620000D02*
G54D13*
D03*
X1078225Y568800D02*
G54D13*
D03*
X754375Y117950D02*
G54D35*
D03*
X754375Y92550D02*
G54D35*
D03*
X1181412Y197325D02*
G54D36*
D03*
X1181412Y175100D02*
G54D36*
D03*
G54D37*
X1189350Y197325D02*
X1208400Y197325D01*
X1224275Y213200D01*
G54D37*
X1189350Y175100D02*
X1208400Y175100D01*
X1224275Y159225D01*
G54D33*
X1398900Y235425D02*
X1398900Y219550D01*
G54D33*
X1398900Y146525D02*
X1398900Y162400D01*
G54D33*
X128900Y505300D02*
X156682Y505300D01*
G54D33*
X103500Y505300D02*
X103500Y476725D01*
X103475Y476700D01*
G54D33*
X128900Y346550D02*
X156682Y346550D01*
G54D33*
X103500Y346550D02*
X103500Y321150D01*
X103475Y321125D01*
G54D33*
X128900Y187800D02*
X156682Y187800D01*
G54D33*
X103500Y187800D02*
X103500Y162400D01*
X103475Y162375D01*
G36*
X1268725Y406875D02*
X1268725Y311625D01*
X1338575Y311625D01*
X1338575Y406875D01*
X1268725Y406875D01*
G37*
G54D34*
X1268725Y406875D02*
X1268725Y311625D01*
X1338575Y311625D01*
X1338575Y406875D01*
X1268725Y406875D01*
G54D32*
X1243325Y344962D02*
X1363975Y344962D01*
G54D32*
X1329050Y425925D02*
X1329050Y391000D01*
G54D32*
X1303650Y264000D02*
X1303650Y324325D01*
G54D33*
X1290950Y292575D02*
X1314800Y292575D01*
G54D38*
X747232Y356075D02*
X747232Y318718D01*
X748025Y317925D01*
G54D38*
X776600Y328293D02*
X758393Y328293D01*
X748025Y317925D01*
G54D38*
X776600Y417193D02*
X758393Y417193D01*
X748025Y406825D01*
G54D38*
X747232Y444975D02*
X747232Y407618D01*
X748025Y406825D01*
G54D38*
X748025Y298925D02*
X776600Y298925D01*
G54D38*
X827400Y340200D02*
X805175Y340200D01*
X798825Y333850D01*
X798825Y305275D01*
X792475Y298925D01*
X776600Y298925D01*
G54D38*
X748025Y387825D02*
X776600Y387825D01*
G54D38*
X827400Y365600D02*
X803588Y365600D01*
X798825Y370362D01*
X798825Y381475D01*
X792475Y387825D01*
X776600Y387825D01*
X798825Y356075D02*
G54D36*
D03*
X798825Y429100D02*
G54D36*
D03*
G54D38*
X776600Y356075D02*
X798825Y356075D01*
G54D38*
X798825Y429100D02*
X789300Y429100D01*
X779775Y438625D01*
G54D33*
X795650Y92550D02*
X795650Y117950D01*
G54D33*
X754375Y184625D02*
X770250Y184625D01*
X776600Y178275D01*
X776600Y140175D01*
X782950Y133825D01*
X792475Y133825D01*
X795650Y130650D01*
X795650Y121125D01*
G54D33*
X754375Y117950D02*
X775050Y117950D01*
G54D33*
X754375Y92550D02*
X775050Y92550D01*
G54D33*
X754375Y146525D02*
X754375Y117950D01*
G54D33*
X754375Y159225D02*
X738500Y159225D01*
X732150Y152875D01*
X732150Y98975D01*
X738475Y92650D01*
X754275Y92650D01*
X754375Y92550D01*
G54D33*
X804375Y159225D02*
X852825Y159225D01*
G54D33*
X770250Y206850D02*
X770250Y184625D01*
G54D33*
X804375Y146525D02*
X792475Y146525D01*
X786125Y152875D01*
X786125Y190975D01*
X790888Y195738D01*
X790888Y206812D01*
X790850Y206850D01*
G54D37*
X71750Y152875D02*
X71750Y441800D01*
G54D33*
X93975Y140175D02*
X84450Y140175D01*
X71750Y152875D01*
G54D33*
X93975Y298925D02*
X71750Y298925D01*
G54D33*
X93975Y454500D02*
X71750Y454500D01*
G54D33*
X112975Y454500D02*
X156682Y454500D01*
G54D33*
X112975Y298925D02*
X156682Y298925D01*
G54D33*
X112975Y140175D02*
X156682Y140175D01*
G54D39*
X455925Y575150D02*
X481325Y575150D01*
X481325Y486250D01*
G54D39*
X455925Y511650D02*
X481325Y511650D01*
G54D39*
X455925Y498950D02*
X481325Y498950D01*
G54D39*
X455925Y486250D02*
X481325Y486250D01*
X1173475Y197325D02*
G54D36*
D03*
X1173475Y175100D02*
G54D36*
D03*
G54D33*
X675000Y619600D02*
X716225Y619600D01*
X716250Y619575D01*
G54D33*
X725750Y597375D02*
X725750Y572025D01*
X725800Y571975D01*
G54D38*
X344800Y324325D02*
X332100Y311625D01*
G54D38*
X453775Y258150D02*
X344300Y258150D01*
X332100Y270350D01*
X332100Y289400D01*
G54D40*
X332100Y311625D02*
X332100Y289400D01*
G54D38*
X453775Y266150D02*
X374400Y266150D01*
X370200Y270350D01*
X370200Y298925D01*
G54D38*
X344800Y298925D02*
X357500Y311625D01*
G54D38*
X469775Y282150D02*
X396500Y282150D01*
X389250Y289400D01*
X389250Y305275D01*
X382900Y311625D01*
G54D40*
X357500Y311625D02*
X382900Y311625D01*
G54D33*
X1249675Y292575D02*
X1270350Y292575D01*
X71750Y152875D02*
G54D36*
D03*
X71750Y160812D02*
G54D36*
D03*
X186050Y208438D02*
G54D36*
D03*
X186050Y367188D02*
G54D36*
D03*
X186050Y533875D02*
G54D36*
D03*
X186050Y216375D02*
G54D36*
D03*
X186050Y375125D02*
G54D36*
D03*
X186050Y525938D02*
G54D36*
D03*
G54D37*
X186050Y533875D02*
X186050Y505300D01*
G54D37*
X186050Y375125D02*
X186050Y346550D01*
G54D37*
X186050Y216375D02*
X186050Y187800D01*
G54D37*
X186050Y524350D02*
X186050Y533875D01*
X201925Y549750D01*
X294000Y549750D01*
X319400Y575150D01*
X319400Y619600D01*
G54D32*
X294000Y527525D02*
X294000Y546575D01*
X290825Y549750D01*
G54D33*
X344800Y619600D02*
X344800Y578325D01*
X319400Y552925D01*
G54D33*
X294000Y619600D02*
X294000Y578325D01*
G54D37*
X71750Y441800D02*
X71750Y514825D01*
X97150Y540225D01*
X167000Y540225D01*
X192400Y565625D01*
X281300Y565625D01*
X294000Y578325D01*
X294000Y619600D01*
G54D33*
X493775Y194150D02*
X493775Y188050D01*
X497200Y184625D01*
X509900Y184625D01*
G54D33*
X509775Y194150D02*
X509775Y168875D01*
X509900Y168750D01*
G54D33*
X501775Y194150D02*
X501775Y202275D01*
X497200Y206850D01*
X487675Y206850D01*
G54D33*
X485775Y194150D02*
X485775Y261138D01*
X478150Y268762D01*
X478150Y281775D01*
X477775Y282150D01*
G54D33*
X485775Y194150D02*
X485775Y183350D01*
X489262Y179862D01*
X489262Y168788D01*
X489300Y168750D01*
G54D33*
X501775Y282150D02*
X501775Y218150D01*
X509900Y210025D01*
X509900Y194275D01*
X509775Y194150D01*
G54D33*
X477775Y282150D02*
X477775Y303275D01*
X479775Y305275D01*
G54D33*
X501775Y282150D02*
X501775Y303875D01*
X500375Y305275D01*
X474975Y240188D02*
G54D36*
D03*
X474975Y224312D02*
G54D36*
D03*
X474975Y210025D02*
G54D36*
D03*
G54D38*
X833750Y556100D02*
X805968Y556100D01*
X805175Y556893D01*
G54D38*
X805175Y527525D02*
X830575Y527525D01*
X833750Y530700D01*
G54D33*
X481325Y486250D02*
X481325Y465575D01*
X479775Y464025D01*
G54D33*
X479775Y464025D02*
X479775Y464025D01*
G54D33*
X547925Y486250D02*
X508312Y486250D01*
X500375Y478312D01*
X500375Y464025D01*
G54D33*
X500375Y464025D02*
X536094Y464025D01*
X539270Y460850D01*
G54D33*
X555144Y432275D02*
X549588Y438625D01*
X540062Y448150D01*
X540062Y460057D01*
X539270Y460850D01*
G54D38*
X547925Y498950D02*
X563875Y498950D01*
X568638Y494188D01*
X568638Y460850D01*
G54D38*
X547925Y511650D02*
X563875Y511650D01*
X584512Y491012D01*
X584512Y432275D01*
X584512Y249712D01*
X568638Y257650D02*
G54D36*
D03*
X584512Y249712D02*
G54D36*
D03*
G54D33*
X1268700Y584650D02*
X1305850Y584650D01*
X1306200Y585000D01*
G54D33*
X1278200Y562450D02*
X1278200Y527575D01*
X1278250Y527525D01*
X668650Y575150D02*
G54D36*
D03*
G54D32*
X706750Y597375D02*
X690875Y597375D01*
X668650Y575150D01*
X794062Y625950D02*
G54D36*
D03*
X786125Y625950D02*
G54D36*
D03*
X786125Y606900D02*
G54D36*
D03*
X794062Y606900D02*
G54D36*
D03*
G54D37*
X786125Y606900D02*
X805175Y606900D01*
G54D37*
X786125Y625950D02*
X809620Y625950D01*
X811525Y626585D01*
G54D37*
X833750Y606900D02*
X812440Y606900D01*
X811525Y605985D01*
G54D37*
X833750Y530700D02*
X843275Y530700D01*
X855975Y543400D01*
X855975Y613250D01*
X843275Y625950D01*
X812160Y625950D01*
X811525Y626585D01*
X697225Y552925D02*
G54D36*
D03*
G54D33*
X697225Y552925D02*
X697225Y571182D01*
X696432Y571975D01*
X521012Y591025D02*
G54D36*
D03*
X513075Y591025D02*
G54D36*
D03*
X481325Y575150D02*
G54D36*
D03*
X489262Y575150D02*
G54D36*
D03*
G54D37*
X513075Y591025D02*
X521012Y591025D01*
G54D37*
X481325Y575150D02*
X489262Y575150D01*
G54D33*
X513075Y591025D02*
X513075Y581500D01*
X494025Y562450D01*
X494025Y484662D01*
X500375Y478312D01*
X1230625Y527525D02*
G54D36*
D03*
G54D33*
X1229832Y527525D02*
X1248882Y527525D01*
G54D33*
X1230000Y585000D02*
X1128700Y585000D01*
X1097275Y616425D01*
X859150Y616425D01*
X855975Y613250D01*
X1230625Y562450D02*
G54D36*
D03*
G54D33*
X1230625Y562450D02*
X1259200Y562450D01*
X555938Y267175D02*
G54D36*
D03*
X392425Y140175D02*
G54D36*
D03*
X386075Y140175D02*
G54D36*
D03*
X503550Y124300D02*
G54D36*
D03*
X509900Y124300D02*
G54D36*
D03*
G54D32*
X386075Y140175D02*
X392425Y140175D01*
G54D32*
X503550Y124300D02*
X509900Y124300D01*
X509900Y168750D01*
G54D38*
X453775Y234150D02*
X222875Y234150D01*
X211450Y222725D01*
X211450Y152875D01*
X198750Y140175D01*
X186050Y140175D01*
G54D38*
X453775Y242150D02*
X223775Y242150D01*
X211450Y254475D01*
X211450Y289400D01*
X201925Y298925D01*
X186050Y298925D01*
G54D38*
X453775Y250150D02*
X228475Y250150D01*
X220975Y257650D01*
X220975Y419575D01*
X186050Y454500D01*
G54D38*
X453775Y210150D02*
X473262Y210150D01*
X473388Y210025D01*
G54D38*
X453775Y218150D02*
X467225Y218150D01*
X473388Y224312D01*
G54D38*
X453775Y226150D02*
X460938Y226150D01*
X474975Y240188D01*
G54D32*
X489300Y168750D02*
X430525Y168750D01*
X430525Y205262D01*
G54D32*
X386075Y140175D02*
X386075Y165575D01*
X389250Y168750D01*
X370200Y222725D02*
G54D36*
D03*
G54D38*
X541775Y226150D02*
X533962Y226150D01*
X530538Y222725D01*
X530538Y205262D01*
X535300Y200500D01*
X535300Y190975D01*
X540062Y186212D01*
X561493Y186212D01*
X562288Y185418D01*
G54D38*
X541775Y210150D02*
X541775Y201962D01*
X544825Y198912D01*
X578956Y198912D01*
X592450Y185418D01*
X593244Y185418D01*
G54D38*
X754375Y171925D02*
X606738Y171925D01*
X598800Y179862D01*
G54D38*
X541775Y218150D02*
X622425Y218150D01*
X622612Y217962D01*
X622612Y185418D01*
G54D38*
X622425Y218150D02*
X622425Y298738D01*
X632138Y308450D01*
X725800Y308450D01*
X725825Y308425D01*
G54D38*
X541775Y226150D02*
X608575Y226150D01*
X614675Y232250D01*
X614675Y364012D01*
X648012Y397350D01*
X725800Y397350D01*
X725825Y397325D01*
G54D39*
X562288Y156050D02*
X622612Y156050D01*
X589275Y140175D02*
G54D36*
D03*
X595625Y140175D02*
G54D36*
D03*
G54D39*
X589275Y140175D02*
X595625Y140175D01*
G54D39*
X592450Y156050D02*
X592450Y143350D01*
X595625Y140175D01*
G54D38*
X568638Y257650D02*
X568638Y452912D01*
G54D38*
X541775Y250150D02*
X561138Y250150D01*
X568638Y257650D01*
G54D38*
X541775Y242150D02*
X576950Y242150D01*
X584512Y249712D01*
G54D38*
X541775Y266150D02*
X554912Y266150D01*
X555938Y267175D01*
X517838Y329088D02*
G54D36*
D03*
X533712Y329088D02*
G54D36*
D03*
G54D38*
X517775Y282150D02*
X517775Y329025D01*
X517838Y329088D01*
G54D38*
X525775Y282150D02*
X525775Y321150D01*
X533712Y329088D01*
G54D37*
X1189350Y175100D02*
X1132200Y175100D01*
X1122675Y184625D01*
X1122675Y314800D01*
G54D37*
X1189350Y197325D02*
X1157600Y197325D01*
X1146488Y208438D01*
X1146488Y329088D01*
X1135375Y340200D01*
X1122675Y340200D01*
X517838Y233838D02*
G54D36*
D03*
X489262Y352900D02*
G54D36*
D03*
G54D38*
X541775Y234150D02*
X518150Y234150D01*
X517838Y233838D01*
G54D38*
X489262Y352900D02*
X489262Y340200D01*
X479738Y330675D01*
G54D38*
X479738Y330675D02*
X454338Y330675D01*
G54D38*
X454338Y301307D02*
X475807Y301307D01*
X479775Y305275D01*
G54D38*
X500338Y330675D02*
X500338Y305312D01*
X500375Y305275D01*
G54D38*
X454338Y330675D02*
X395600Y330675D01*
X386075Y340200D01*
X309875Y340200D01*
X300350Y330675D01*
X300350Y317975D01*
X319400Y298925D01*
G54D33*
X370200Y222725D02*
X371788Y222725D01*
X389250Y205262D01*
G54D39*
X500338Y330675D02*
X500338Y357700D01*
X494025Y364012D01*
X436875Y364012D01*
X436875Y364012D02*
G54D36*
D03*
G54D38*
X804375Y184625D02*
X804375Y244162D01*
X798825Y249712D01*
X640075Y249712D01*
G54D38*
X804375Y171925D02*
X817875Y171925D01*
X825812Y179862D01*
X825812Y189388D01*
X811525Y203675D01*
X811525Y249712D01*
X802000Y259238D01*
X657538Y259238D01*
X657538Y259238D02*
G54D36*
D03*
X640075Y249712D02*
G54D36*
D03*
X676588Y133825D02*
G54D35*
D03*
X676588Y76675D02*
G54D35*
D03*
X728975Y197325D02*
G54D36*
D03*
X735325Y197325D02*
G54D36*
D03*
G54D33*
X728975Y197325D02*
X735325Y197325D01*
X735325Y187800D01*
X738500Y184625D01*
X754375Y184625D01*
X728975Y217962D02*
G54D36*
D03*
X735325Y217962D02*
G54D36*
D03*
G54D33*
X728975Y217962D02*
X735325Y217962D01*
X741675Y224312D01*
X786125Y224312D01*
X790888Y219550D01*
X790888Y206888D01*
X790850Y206850D01*
G54D37*
X1303650Y264000D02*
X1303650Y252888D01*
X1290950Y240188D01*
X1290950Y219550D01*
X1265550Y249712D02*
G54D36*
D03*
G54D38*
X1265550Y249712D02*
X1263962Y249712D01*
X1249675Y264000D01*
G54D33*
X1249675Y391000D02*
X1249675Y414812D01*
X1260788Y425925D01*
X1278250Y425925D01*
G54D33*
X1220307Y391000D02*
X1220307Y264000D01*
X1206812Y249712D02*
G54D36*
D03*
G54D33*
X1206812Y249712D02*
X1221100Y264000D01*
X395600Y575150D02*
G54D36*
D03*
X401950Y575150D02*
G54D36*
D03*
G54D33*
X395600Y619600D02*
X395600Y575150D01*
X401950Y575150D01*
G54D41*
X602358Y72983D02*
X604692Y69094D01*
X609358Y67150D01*
X614025Y67150D01*
X618692Y69094D01*
X621025Y72983D01*
X621025Y92428D01*
X618692Y96317D01*
X614025Y98261D01*
X609358Y98261D01*
X604692Y96317D01*
X602358Y92428D01*
G54D41*
X572802Y92428D02*
X572802Y72983D01*
X575136Y69094D01*
X579802Y67150D01*
X584469Y67150D01*
X589136Y69094D01*
X591469Y72983D01*
X591469Y92428D01*
X589136Y96317D01*
X584469Y98261D01*
X579802Y98261D01*
X575136Y96317D01*
X572802Y92428D01*
G54D41*
X543246Y67150D02*
X561913Y67150D01*
X561913Y69094D01*
X559580Y72983D01*
X545580Y84650D01*
X543246Y88539D01*
X543246Y92428D01*
X545580Y96317D01*
X550246Y98261D01*
X554913Y98261D01*
X559580Y96317D01*
X561913Y92428D01*
G54D41*
X521001Y72983D02*
X518668Y69094D01*
X514001Y67150D01*
X509334Y67150D01*
X504668Y69094D01*
X502334Y72983D01*
X502334Y76872D01*
X504668Y80761D01*
X509334Y82706D01*
X514001Y82706D01*
X518668Y84650D01*
X521001Y88539D01*
X521001Y92428D01*
X518668Y96317D01*
X514001Y98261D01*
X509334Y98261D01*
X504668Y96317D01*
X502334Y92428D01*
G54D41*
X477445Y69094D02*
X481178Y67150D01*
X485845Y67150D01*
X490512Y69094D01*
X491445Y72983D01*
X491445Y79594D01*
X489112Y83483D01*
X484445Y84650D01*
X479778Y83483D01*
X477445Y80761D01*
X477445Y76872D01*
X491445Y76872D01*
G54D41*
X466556Y67150D02*
X466556Y84650D01*
G54D41*
X466556Y81539D02*
X461889Y84650D01*
X457223Y83483D01*
X454889Y80761D01*
X454889Y67150D01*
G54D41*
X454889Y81539D02*
X450223Y84650D01*
X445556Y83483D01*
X443223Y80761D01*
X443223Y67150D01*
G54D41*
X432334Y82706D02*
X427667Y84650D01*
X422067Y84650D01*
X418334Y80761D01*
X418334Y67150D01*
G54D41*
X418334Y72983D02*
X420667Y76872D01*
X425334Y77650D01*
X430001Y76872D01*
X432334Y72983D01*
X431401Y69094D01*
X427667Y67150D01*
X425334Y67150D01*
X424401Y67150D01*
X420667Y69094D01*
X418334Y72983D01*
G54D41*
X407445Y84650D02*
X407445Y59372D01*
G54D41*
X407445Y72983D02*
X405112Y67928D01*
X400445Y67150D01*
X395778Y67928D01*
X393445Y71817D01*
X393445Y79594D01*
X395778Y83483D01*
X400445Y84650D01*
X405112Y83483D01*
X407445Y78817D01*
G54D41*
X382556Y67150D02*
X382556Y98261D01*
G54D41*
X382556Y79594D02*
X380223Y83483D01*
X375556Y84650D01*
X370889Y83483D01*
X368556Y79594D01*
X368556Y67150D01*
G54D41*
X343667Y71817D02*
X343667Y79594D01*
X346000Y83483D01*
X350667Y84650D01*
X355334Y83483D01*
X357667Y79594D01*
X357667Y71817D01*
X355334Y67928D01*
X350667Y67150D01*
X346000Y67928D01*
X343667Y71817D01*
G54D41*
X332778Y67150D02*
X332778Y84650D01*
G54D41*
X332778Y80761D02*
X328111Y84650D01*
X323445Y84650D01*
G54D41*
X298556Y69094D02*
X302289Y67150D01*
X306956Y67150D01*
X311623Y69094D01*
X312556Y72983D01*
X312556Y79594D01*
X310223Y83483D01*
X305556Y84650D01*
X300889Y83483D01*
X298556Y80761D01*
X298556Y76872D01*
X312556Y76872D01*
G54D42*
X1422332Y526889D02*
X1419665Y524667D01*
X1418776Y522444D01*
X1418776Y518000D01*
G54D42*
X1425888Y518000D02*
X1425888Y535778D01*
X1421443Y535778D01*
X1419665Y534667D01*
X1418776Y532444D01*
X1418776Y530222D01*
X1419665Y528000D01*
X1421443Y526889D01*
X1425888Y526889D01*
G54D42*
X1407221Y519111D02*
X1408643Y518000D01*
X1410421Y518000D01*
X1412199Y519111D01*
X1412554Y521333D01*
X1412554Y525111D01*
X1411666Y527333D01*
X1409888Y528000D01*
X1408110Y527333D01*
X1407221Y525778D01*
X1407221Y523556D01*
X1412554Y523556D01*
G54D42*
X1401000Y528000D02*
X1397444Y518000D01*
X1393888Y528000D01*
G54D42*
X1386955Y518000D02*
X1387666Y518000D01*
X1387666Y518889D01*
X1386955Y518889D01*
X1386955Y518000D01*
X1387666Y518000D01*
G54D42*
X1380734Y518000D02*
X1380022Y518000D01*
X1380022Y518889D01*
X1380734Y518889D01*
X1380734Y518000D01*
G54D42*
X1380022Y531333D02*
X1380734Y531333D01*
X1380734Y532222D01*
X1380022Y532222D01*
X1380022Y531333D01*
G54D42*
X1373800Y529111D02*
X1369356Y535778D01*
X1369356Y518000D01*
G54D42*
X1362423Y518000D02*
X1363134Y518000D01*
X1363134Y518889D01*
X1362423Y518889D01*
X1362423Y518000D01*
X1363134Y518000D01*
G54D42*
X1356202Y529111D02*
X1351757Y535778D01*
X1351757Y518000D01*
G54D42*
X1420364Y502282D02*
X1420364Y491171D01*
X1421253Y488949D01*
X1423030Y487838D01*
X1424808Y487838D01*
X1426586Y488949D01*
X1427475Y491171D01*
X1427475Y502282D01*
X1426586Y504504D01*
X1424808Y505615D01*
X1423030Y505615D01*
X1421253Y504504D01*
X1420364Y502282D01*
G54D42*
X1408809Y487838D02*
X1408809Y505615D01*
X1414142Y494504D01*
X1414142Y492282D01*
X1407031Y492282D01*
G54D42*
X1400809Y487838D02*
X1393698Y505615D01*
G54D42*
X1380365Y502282D02*
X1380365Y491171D01*
X1381254Y488949D01*
X1383032Y487838D01*
X1384809Y487838D01*
X1386587Y488949D01*
X1387476Y491171D01*
X1387476Y502282D01*
X1386587Y504504D01*
X1384809Y505615D01*
X1383032Y505615D01*
X1381254Y504504D01*
X1380365Y502282D01*
G54D42*
X1367032Y487838D02*
X1374143Y487838D01*
X1374143Y488949D01*
X1373254Y491171D01*
X1367921Y497838D01*
X1367032Y500060D01*
X1367032Y502282D01*
X1367921Y504504D01*
X1369698Y505615D01*
X1371476Y505615D01*
X1373254Y504504D01*
X1374143Y502282D01*
G54D42*
X1360810Y487838D02*
X1353699Y505615D01*
G54D42*
X1340366Y487838D02*
X1347477Y487838D01*
X1347477Y488949D01*
X1346588Y491171D01*
X1341255Y497838D01*
X1340366Y500060D01*
X1340366Y502282D01*
X1341255Y504504D01*
X1343032Y505615D01*
X1344810Y505615D01*
X1346588Y504504D01*
X1347477Y502282D01*
G54D42*
X1327033Y502282D02*
X1327033Y491171D01*
X1327922Y488949D01*
X1329700Y487838D01*
X1331477Y487838D01*
X1333255Y488949D01*
X1334144Y491171D01*
X1334144Y502282D01*
X1333255Y504504D01*
X1331477Y505615D01*
X1329700Y505615D01*
X1327922Y504504D01*
X1327033Y502282D01*
G54D42*
X1320811Y498949D02*
X1316366Y505615D01*
X1316366Y487838D01*
G54D42*
X1310145Y491171D02*
X1309256Y488949D01*
X1307478Y487838D01*
X1305700Y487838D01*
X1303923Y488949D01*
X1303034Y491171D01*
X1303034Y496726D01*
X1303034Y497838D01*
X1305700Y495615D01*
X1307478Y495615D01*
X1309256Y496726D01*
X1310145Y498949D01*
X1310145Y502282D01*
X1309256Y504504D01*
X1307478Y505615D01*
X1305700Y505615D01*
X1303923Y504504D01*
X1303034Y502282D01*
X1303034Y496726D01*
G54D43*
X1423221Y441800D02*
X1423221Y466800D01*
X1421888Y468467D01*
X1420554Y467467D01*
G54D43*
X1425888Y456800D02*
X1420554Y456800D01*
G54D43*
X1411222Y441800D02*
X1411222Y468467D01*
G54D43*
X1401888Y456800D02*
X1396555Y441800D01*
X1391222Y456800D01*
G54D43*
X1396555Y441800D02*
X1397888Y436800D01*
X1399222Y435133D01*
X1400555Y435133D01*
G54D43*
X1375222Y455133D02*
X1377888Y455133D01*
X1380555Y456800D01*
X1381888Y460133D01*
X1381888Y463467D01*
X1380555Y466800D01*
X1377888Y468467D01*
X1375222Y468467D01*
X1372555Y466800D01*
X1371222Y463467D01*
X1371222Y460133D01*
X1372555Y456800D01*
X1375222Y455133D01*
X1372555Y453467D01*
X1371222Y450133D01*
X1371222Y446800D01*
X1372555Y443467D01*
X1375222Y441800D01*
X1377888Y441800D01*
X1380555Y443467D01*
X1381888Y446800D01*
X1381888Y450133D01*
X1380555Y453467D01*
X1377888Y455133D01*
G54D43*
X1361888Y441800D02*
X1361888Y456800D01*
G54D43*
X1361888Y453467D02*
X1359222Y456800D01*
X1356555Y456800D01*
G54D33*
X446400Y619600D02*
X522600Y619600D01*
G54D33*
X497200Y619600D02*
X497200Y583088D01*
X489262Y575150D01*
X978212Y360838D02*
G54D44*
D03*
X978312Y337838D02*
G54D44*
D03*
X978312Y314838D02*
G54D44*
D03*
X919612Y337738D02*
G54D45*
D03*
X911538Y419575D02*
G54D46*
D03*
X978212Y419575D02*
G54D46*
D03*
G54D37*
X978312Y314838D02*
X1122638Y314838D01*
X1122675Y314800D01*
G54D37*
X1122675Y340200D02*
X1017900Y340200D01*
X997262Y360838D01*
X978212Y360838D01*
G54D39*
X978212Y360838D02*
X978212Y419575D01*
G54D37*
X978312Y337838D02*
X919712Y337838D01*
X919612Y337738D01*
X919612Y370225D01*
X911538Y378300D01*
X911538Y419575D01*
G54D39*
X798825Y429100D02*
X808350Y438625D01*
X900425Y438625D01*
X908362Y430688D01*
M02*
